<?xml version="1.0" standalone="no"?>
<!DOCTYPE svg PUBLIC "-//W3C//DTD SVG 20010904//EN"
 "http://www.w3.org/TR/2001/REC-SVG-20010904/DTD/svg10.dtd">
<svg version="1.0" xmlns="http://www.w3.org/2000/svg"
 width="681.000000pt" height="845.000000pt" viewBox="0 0 681.000000 845.000000"
 preserveAspectRatio="xMidYMid meet">

<g transform="translate(0.000000,845.000000) scale(0.100000,-0.100000)"
fill="#000000" stroke="none">
<path d="M612 8383 c-27 -23 -494 -872 -487 -884 4 -5 12 -9 20 -9 11 0 1393
-748 1563 -847 l43 -24 -75 -145 c-42 -79 -76 -150 -75 -156 0 -7 55 -103 122
-212 109 -179 147 -230 147 -197 0 5 -54 100 -121 211 l-121 201 81 152 c64
120 78 154 68 163 -6 7 -372 209 -811 448 -440 240 -800 437 -801 439 -6 7
465 842 473 840 7 -2 2101 -1150 2109 -1157 0 0 -71 -136 -159 -300 -115 -217
-156 -302 -148 -310 6 -6 316 -169 688 -362 l677 -351 3 -2306 c2 -2299 2
-2307 22 -2307 20 0 20 -7 20 -516 l0 -516 23 6 c12 3 109 6 215 6 164 0 192
2 192 15 0 13 -29 15 -200 15 l-200 0 0 495 0 495 1420 0 1420 0 0 -495 0
-495 -145 0 c-122 0 -145 -2 -145 -15 0 -13 23 -15 145 -15 l145 0 0 -55 0
-55 -1025 0 c-904 0 -1025 -2 -1025 -15 0 -13 122 -15 1040 -15 l1040 0 0 573
c0 314 3 582 6 594 l6 23 -1461 0 -1461 0 0 2293 c0 1260 0 2298 0 2305 0 6
-5 12 -11 12 -11 0 -1339 687 -1352 699 -4 5 64 144 153 310 143 268 173 336
139 315 -5 -3 -15 -1 -22 4 -12 10 -2105 1162 -2111 1162 -2 0 -13 -8 -24 -17z"/>
<path d="M2136 6061 c-6 -9 128 -273 157 -308 12 -16 27 -17 27 -2 0 14 -148
290 -165 307 -8 9 -15 10 -19 3z"/>
<path d="M2385 5998 c-118 -72 -127 -80 -117 -90 7 -7 37 6 95 41 137 83 95
96 665 -215 361 -197 497 -276 525 -305 l37 -40 0 -484 0 -485 -105 0 c-87 0
-105 3 -105 15 0 8 -7 15 -15 15 -13 0 -15 -52 -15 -405 0 -353 2 -405 15
-405 8 0 15 9 15 20 0 19 7 20 105 20 l105 0 0 -727 c0 -401 -3 -779 -7 -840
l-6 -113 -154 0 -153 0 0 80 c0 64 -3 80 -15 80 -12 0 -15 -18 -15 -105 0 -87
3 -105 15 -105 8 0 15 5 15 10 0 6 58 10 155 10 l155 0 0 -205 c0 -113 -2
-205 -4 -205 -2 0 -92 48 -200 106 l-196 106 0 185 c0 146 -3 187 -14 199 -12
11 -57 14 -235 14 l-221 0 0 -99 0 -99 32 -8 c29 -6 678 -350 801 -425 27 -16
54 -29 60 -29 9 0 13 456 15 1948 l4 1947 -51 53 c-28 28 -55 52 -60 52 -5 0
-224 117 -486 260 -469 256 -477 260 -533 259 -45 0 -67 -7 -107 -31z m1205
-1633 l0 -25 -105 0 -105 0 0 25 0 25 105 0 105 0 0 -25z m0 -75 c0 -19 -7
-20 -105 -20 -98 0 -105 1 -105 20 0 19 7 20 105 20 98 0 105 -1 105 -20z m0
-85 l0 -35 -105 0 -105 0 0 35 0 35 105 0 105 0 0 -35z m0 -90 l0 -25 -105 0
-105 0 0 25 0 25 105 0 105 0 0 -25z m0 -90 l0 -35 -105 0 -105 0 0 35 0 35
105 0 105 0 0 -35z m0 -95 l0 -30 -105 0 -105 0 0 30 0 30 105 0 105 0 0 -30z
m0 -90 l0 -30 -105 0 -105 0 0 30 0 30 105 0 105 0 0 -30z m0 -95 l0 -35 -105
0 -105 0 0 35 0 35 105 0 105 0 0 -35z m-440 -1780 l0 -176 -22 12 c-13 7
-101 54 -195 105 -95 52 -177 94 -183 94 -6 0 -10 29 -10 70 l0 70 205 0 205
0 0 -175z"/>
<path d="M1786 5871 c-4 -5 14 -43 39 -84 25 -41 45 -77 45 -80 0 -3 -45 -31
-101 -62 -55 -31 -103 -64 -107 -73 -3 -10 -85 -152 -181 -317 l-176 -300 3
-1419 2 -1418 26 6 c14 4 46 4 70 0 l44 -6 0 -424 0 -424 29 -18 c16 -9 292
-154 615 -322 l585 -305 -35 -63 c-32 -59 -36 -82 -14 -82 10 0 741 -398 754
-411 6 -5 182 -9 413 -9 352 0 403 2 403 15 0 13 -50 15 -394 15 l-395 0 -58
34 c-32 18 -197 109 -368 201 -170 92 -315 173 -322 179 -8 8 -5 22 16 58 l27
46 467 -239 467 -239 65 0 c37 0 65 -4 65 -10 0 -5 7 -10 15 -10 12 0 15 51
17 368 2 234 -1 371 -7 379 -18 20 -1176 634 -1186 628 -16 -10 -2 -22 76 -65
l75 -41 -26 -50 c-18 -37 -29 -49 -42 -45 -56 17 -195 45 -202 41 -5 -3 -43
-71 -85 -151 -54 -103 -73 -150 -66 -157 6 -6 12 -9 14 -6 2 2 37 67 77 145
l74 141 90 -20 c50 -11 95 -23 99 -27 11 -10 -238 -466 -253 -462 -7 2 -155
77 -329 167 l-316 165 3 305 c2 268 1 305 -13 305 -13 0 -15 -37 -15 -295 0
-162 -3 -295 -6 -295 -4 0 -69 32 -145 72 l-139 72 0 423 0 423 150 0 150 0 0
-75 c0 -60 3 -75 15 -75 12 0 15 16 15 84 l0 84 -31 14 -31 13 4 118 3 117
-152 0 c-129 0 -153 -2 -153 -15 0 -10 11 -15 35 -15 l35 0 0 -105 0 -105 -34
0 c-19 0 -36 -5 -38 -11 -3 -8 -20 -9 -56 -4 l-52 7 0 184 0 184 231 0 231 0
-6 23 c-3 12 -6 77 -6 145 0 102 -2 122 -15 122 -13 0 -15 -21 -15 -130 l0
-130 -210 0 -210 0 0 1199 0 1198 161 274 c211 361 196 340 276 384 37 21 78
44 89 52 20 13 24 10 65 -54 31 -49 44 -63 47 -50 3 17 -157 299 -177 312 -6
3 -12 1 -15 -4z m-229 -3648 c-2 -32 -3 -8 -3 52 0 61 1 87 3 58 2 -29 2 -78
0 -110z m53 52 c0 -63 -4 -105 -10 -105 -6 0 -10 42 -10 105 0 63 4 105 10
105 6 0 10 -42 10 -105z m50 0 c0 -63 -4 -105 -10 -105 -6 0 -10 42 -10 105 0
63 4 105 10 105 6 0 10 -42 10 -105z m60 0 c0 -87 -3 -105 -15 -105 -12 0 -15
18 -15 105 0 87 3 105 15 105 12 0 15 -18 15 -105z m1570 -1177 l475 -254 3
-342 2 -342 -61 0 c-61 0 -69 4 -533 240 -259 132 -478 245 -486 250 -8 5 -53
30 -100 55 -47 25 -91 49 -98 54 -10 6 18 67 122 260 75 138 136 255 136 261
0 5 8 25 17 45 11 24 23 35 33 32 8 -3 229 -119 490 -259z"/>
<path d="M2280 5665 c0 -8 7 -15 15 -15 8 0 15 7 15 15 0 8 -7 15 -15 15 -8 0
-15 -7 -15 -15z"/>
<path d="M2070 5600 l0 -70 40 0 c29 0 40 4 40 15 0 9 -9 15 -25 15 -16 0 -25
6 -25 15 0 9 9 15 25 15 16 0 25 6 25 15 0 9 -9 15 -25 15 -14 0 -25 5 -25 10
0 6 11 10 25 10 16 0 25 6 25 15 0 11 -11 15 -40 15 l-40 0 0 -70z"/>
<path d="M2337 5650 c-19 -22 -22 -40 -8 -40 6 0 11 -17 13 -37 3 -33 7 -38
31 -41 19 -2 27 1 27 12 0 9 -7 16 -15 16 -9 0 -15 9 -15 25 0 16 6 25 15 25
8 0 15 7 15 15 0 8 -7 15 -15 15 -8 0 -15 7 -15 15 0 21 -12 19 -33 -5z"/>
<path d="M2438 5656 c-22 -16 -24 -40 -3 -32 12 4 15 -4 15 -44 0 -38 4 -50
15 -50 12 0 15 14 15 70 0 73 -7 83 -42 56z"/>
<path d="M2178 5612 c20 -27 20 -28 0 -55 -20 -27 -20 -27 0 -27 11 0 23 7 26
16 6 16 8 16 24 0 31 -27 45 -20 26 12 -15 27 -15 31 1 55 20 31 3 38 -27 11
-16 -16 -18 -16 -24 0 -3 9 -15 16 -26 16 -19 0 -19 0 0 -28z"/>
<path d="M2280 5585 c0 -42 3 -55 15 -55 12 0 15 13 15 55 0 42 -3 55 -15 55
-12 0 -15 -13 -15 -55z"/>
<path d="M2893 5413 c-127 -3 -153 -6 -153 -18 0 -9 10 -15 25 -15 l25 0 0
-165 0 -165 -35 0 -35 0 0 -85 c0 -69 3 -85 15 -85 12 0 15 15 15 71 l0 70
195 -2 195 -2 0 -68 c0 -56 3 -69 15 -69 13 0 15 14 13 83 -3 76 -5 82 -25 85
-23 3 -23 4 -23 183 0 164 -1 179 -17 179 -10 0 -27 2 -38 3 -11 2 -89 1 -172
0z m-33 -198 c0 -158 -1 -165 -20 -165 -19 0 -20 7 -20 165 0 158 1 165 20
165 19 0 20 -7 20 -165z m60 0 c0 -140 -2 -165 -15 -165 -13 0 -15 25 -15 165
0 140 2 165 15 165 13 0 15 -25 15 -165z m60 0 c0 -140 -2 -165 -15 -165 -13
0 -15 25 -15 165 0 140 2 165 15 165 13 0 15 -25 15 -165z m60 0 c0 -140 -2
-165 -15 -165 -13 0 -15 25 -15 165 0 140 2 165 15 165 13 0 15 -25 15 -165z
m50 0 c0 -103 -4 -165 -10 -165 -6 0 -10 62 -10 165 0 103 4 165 10 165 6 0
10 -62 10 -165z"/>
<path d="M2610 5200 l0 -70 40 0 c29 0 40 4 40 15 0 9 -9 15 -25 15 -16 0 -25
6 -25 15 0 9 9 15 25 15 16 0 25 6 25 15 0 9 -9 15 -25 15 -14 0 -25 5 -25 10
0 6 11 10 25 10 16 0 25 6 25 15 0 11 -11 15 -40 15 l-40 0 0 -70z"/>
<path d="M2910 4740 l0 -70 38 0 c21 0 43 5 50 12 15 15 16 55 2 63 -8 5 -7
11 1 21 18 22 -7 44 -52 44 l-39 0 0 -70z m60 30 c0 -5 -7 -10 -15 -10 -8 0
-15 5 -15 10 0 6 7 10 15 10 8 0 15 -4 15 -10z m3 -55 c1 -5 -6 -11 -15 -13
-11 -2 -18 3 -18 13 0 17 30 18 33 0z"/>
<path d="M2713 4533 c4 -75 7 -192 7 -260 l0 -123 220 0 220 0 0 260 c0 224
-2 260 -15 260 -12 0 -15 -14 -15 -70 l0 -70 -195 0 -195 0 0 70 c0 58 -3 70
-17 70 -14 0 -15 -14 -10 -137z m417 -193 l0 -160 -190 0 -190 0 0 160 0 160
190 0 190 0 0 -160z"/>
<path d="M1350 3555 c0 -13 31 -15 215 -15 l215 0 0 -255 c0 -220 2 -255 15
-255 13 0 15 36 15 264 0 231 -2 265 -16 270 -9 3 -112 6 -230 6 -184 0 -214
-2 -214 -15z"/>
<path d="M3440 3490 c0 -63 2 -70 20 -70 15 0 20 7 20 25 0 18 5 25 20 25 11
0 20 7 20 15 0 8 -9 15 -20 15 -11 0 -20 7 -20 15 0 9 9 15 25 15 16 0 25 6
25 15 0 11 -12 15 -45 15 l-45 0 0 -70z"/>
<path d="M2625 3401 c-3 -6 -3 -20 0 -31 5 -15 0 -22 -20 -30 -60 -23 -72 -23
-78 2 -4 15 -10 19 -17 12 -11 -11 53 -391 70 -408 18 -18 23 3 13 53 -6 28
-6 48 -2 45 4 -2 25 2 45 11 40 17 54 10 54 -27 0 -10 7 -18 15 -18 18 0 18 5
1 95 -10 52 -11 72 -2 78 8 5 7 11 -4 20 -9 7 -23 51 -33 101 -17 90 -29 118
-42 97z m15 -99 c0 -20 -74 -57 -91 -46 -21 13 -5 32 39 46 26 9 48 17 50 17
1 1 2 -7 2 -17z m10 -66 c0 -8 2 -20 5 -28 3 -8 -10 -19 -38 -30 -55 -23 -55
-23 -59 10 -2 22 3 30 32 44 44 21 60 22 60 4z m20 -106 c0 -25 -6 -32 -42
-48 -43 -18 -43 -18 -50 2 -11 38 -8 43 30 59 54 22 62 21 62 -13z"/>
<path d="M2424 3382 c-6 -20 -13 -22 -70 -22 -50 0 -64 3 -64 15 0 8 -7 15
-15 15 -13 0 -15 -22 -15 -135 0 -113 2 -135 15 -135 10 0 15 11 15 35 l0 35
65 0 c66 0 135 20 135 40 0 22 -40 154 -50 164 -7 7 -12 4 -16 -12z m16 -72
c0 -18 -7 -20 -75 -20 -68 0 -75 2 -75 20 0 18 7 20 75 20 68 0 75 -2 75 -20z
m15 -59 c10 -18 -33 -31 -99 -31 -59 0 -66 2 -66 20 0 18 7 20 79 20 44 0 82
-4 86 -9z"/>
<path d="M1532 2968 c-11 -29 -23 -61 -27 -70 -5 -13 -2 -18 9 -18 9 0 19 7
22 15 4 8 18 15 34 15 16 0 30 -7 34 -15 5 -13 36 -22 36 -10 0 3 -12 34 -26
70 -33 83 -53 86 -82 13z m51 -8 c4 -15 0 -20 -13 -20 -13 0 -17 5 -13 20 3
11 9 20 13 20 4 0 10 -9 13 -20z"/>
<path d="M1850 2260 l0 -70 38 0 c55 0 82 23 82 69 0 49 -24 71 -78 71 l-42 0
0 -70z m84 18 c14 -23 -3 -52 -33 -56 -19 -3 -21 1 -21 38 0 37 2 41 21 38 12
-2 27 -11 33 -20z"/>
<path d="M3371 2301 c-30 -30 -28 -86 3 -106 30 -20 80 -16 84 6 2 13 -3 15
-23 12 -29 -6 -55 12 -55 38 0 22 35 43 62 36 14 -4 18 -1 16 11 -5 26 -62 28
-87 3z"/>
<path d="M3540 1335 c0 -8 7 -15 15 -15 8 0 15 7 15 15 0 8 -7 15 -15 15 -8 0
-15 -7 -15 -15z"/>
<path d="M3330 1270 l0 -70 40 0 c29 0 40 4 40 15 0 9 -9 15 -25 15 -16 0 -25
6 -25 15 0 9 9 15 25 15 16 0 25 6 25 15 0 9 -9 15 -25 15 -14 0 -25 5 -25 10
0 6 11 10 25 10 16 0 25 6 25 15 0 11 -11 15 -40 15 l-40 0 0 -70z"/>
<path d="M3597 1320 c-19 -22 -22 -40 -8 -40 6 0 11 -17 13 -37 3 -33 7 -38
31 -41 19 -2 27 1 27 12 0 9 -7 16 -15 16 -9 0 -15 9 -15 25 0 16 6 25 15 25
8 0 15 7 15 15 0 8 -7 15 -15 15 -8 0 -15 7 -15 15 0 21 -12 19 -33 -5z"/>
<path d="M3687 1333 c-13 -13 -7 -32 8 -27 8 4 23 3 32 0 15 -6 11 -12 -20
-41 -53 -48 -49 -65 13 -65 38 0 50 4 50 15 0 10 -10 15 -32 15 l-33 0 33 26
c33 27 40 52 20 72 -13 13 -60 16 -71 5z"/>
<path d="M3438 1282 c20 -27 20 -28 0 -55 -20 -27 -20 -27 0 -27 11 0 23 7 26
16 6 16 8 16 24 0 31 -27 45 -20 26 12 -15 27 -15 31 1 55 20 31 3 38 -27 11
-16 -16 -18 -16 -24 0 -3 9 -15 16 -26 16 -19 0 -19 0 0 -28z"/>
<path d="M3540 1255 c0 -42 3 -55 15 -55 12 0 15 13 15 55 0 42 -3 55 -15 55
-12 0 -15 -13 -15 -55z"/>
<path d="M5040 860 c0 -5 11 -10 25 -10 34 0 31 -15 -6 -30 -20 -9 -27 -16
-20 -23 6 -6 22 -3 45 11 20 12 36 18 36 13 0 -12 50 -32 62 -25 5 3 -5 16
-24 27 l-33 22 28 3 c55 7 25 22 -43 22 -40 0 -70 -4 -70 -10z"/>
<path d="M5270 860 c0 -5 -11 -10 -25 -10 -14 0 -25 -4 -25 -10 0 -5 11 -10
25 -10 32 0 32 -20 0 -58 -18 -22 -22 -33 -14 -38 7 -4 20 2 31 16 l19 23 23
-22 c13 -13 27 -18 30 -13 3 5 -3 17 -14 27 -27 24 -27 65 0 65 11 0 20 5 20
10 0 6 -9 10 -20 10 -11 0 -20 5 -20 10 0 6 -7 10 -15 10 -8 0 -15 -4 -15 -10z"/>
<path d="M5350 780 c0 -73 3 -90 15 -90 11 0 15 12 15 45 0 33 4 45 15 45 8 0
15 5 15 10 0 6 -7 10 -15 10 -10 0 -15 11 -15 35 0 24 -5 35 -15 35 -12 0 -15
-17 -15 -90z"/>
<path d="M5550 815 c0 -55 0 -55 -31 -55 -37 0 -69 -16 -69 -35 0 -33 80 -47
116 -21 16 13 17 18 6 35 -7 13 -8 21 -2 21 5 0 10 9 10 20 0 11 7 20 15 20 8
0 15 5 15 10 0 6 -7 10 -15 10 -9 0 -15 9 -15 25 0 16 -6 25 -15 25 -12 0 -15
-13 -15 -55z m-9 -90 c0 -5 -7 -12 -16 -13 -23 -5 -47 6 -40 19 8 13 56 8 56
-6z"/>
<path d="M5430 851 c0 -5 10 -11 23 -13 l22 -3 -27 -27 c-29 -29 -22 -46 12
-28 14 8 26 8 40 0 32 -17 44 -1 15 22 -30 23 -32 38 -5 38 11 0 20 5 20 10 0
6 -22 10 -50 10 -27 0 -50 -4 -50 -9z"/>
<path d="M5020 770 c0 -5 18 -10 40 -10 39 0 40 -1 40 -35 0 -19 5 -35 10 -35
6 0 10 16 10 35 0 34 1 35 40 35 22 0 40 5 40 10 0 6 -37 10 -90 10 -53 0 -90
-4 -90 -10z"/>
<path d="M4630 255 c0 -13 87 -15 725 -15 638 0 725 2 725 15 0 13 -87 15
-725 15 -638 0 -725 -2 -725 -15z"/>
</g>
</svg>
