<?xml version="1.0" standalone="no"?>
<!DOCTYPE svg PUBLIC "-//W3C//DTD SVG 20010904//EN"
 "http://www.w3.org/TR/2001/REC-SVG-20010904/DTD/svg10.dtd">
<svg version="1.0" xmlns="http://www.w3.org/2000/svg"
 width="556.000000pt" height="1045.000000pt" viewBox="0 0 556.000000 1045.000000"
 preserveAspectRatio="xMidYMid meet">

<g transform="translate(0.000000,1045.000000) scale(0.100000,-0.100000)"
fill="#000000" stroke="none">
<path d="M730 9342 l0 -817 43 -25 c23 -14 169 -95 323 -180 l282 -153 7 -899
c4 -494 4 -902 1 -906 -4 -4 -151 -43 -326 -87 l-319 -80 -6 -1385 -7 -1385
52 -205 c100 -396 181 -598 307 -765 37 -49 156 -178 263 -287 l195 -197 1320
-709 c726 -390 1345 -723 1375 -739 30 -16 172 -92 315 -168 142 -77 268 -148
278 -158 10 -10 23 -17 28 -15 6 2 10 207 10 548 l0 545 -32 19 c-18 11 -337
185 -708 386 l-676 367 -3 366 c-1 202 0 367 3 367 3 0 318 -167 701 -371 383
-203 703 -368 710 -365 12 5 14 416 16 2638 l3 2633 -33 163 c-37 181 -80 324
-119 392 -14 25 -50 74 -79 110 -63 78 -231 234 -259 242 -11 3 -834 440
-1828 972 -994 531 -1814 966 -1822 966 -13 0 -15 -109 -15 -818z m270 654
c118 -63 214 -120 212 -126 -1 -6 -72 -140 -158 -297 -85 -157 -152 -288 -149
-292 4 -3 743 -398 1643 -877 l1637 -871 5 -2109 5 -2109 328 -3 327 -2 0 -80
0 -80 -150 0 -150 0 0 -180 0 -180 -200 0 -200 0 0 115 c0 96 -3 115 -15 115
-12 0 -15 -19 -15 -107 0 -60 -3 -118 -6 -130 l-6 -23 236 0 236 0 0 180 0
180 135 0 135 0 0 -521 c0 -413 -3 -520 -12 -516 -7 2 -191 99 -408 215 l-395
211 -3 330 -2 331 -299 0 c-263 0 -300 -2 -305 -16 -3 -9 -6 -266 -5 -572 l0
-557 60 -30 c99 -48 99 -31 3 -204 l-86 -155 22 -16 c27 -21 1066 -584 1084
-588 9 -2 47 56 102 152 l87 155 70 -36 c75 -40 87 -55 65 -81 -28 -32 -398
-754 -392 -764 3 -5 -29 9 -72 33 -141 75 -137 47 -33 220 67 111 88 154 80
162 -6 6 -11 8 -11 5 0 -3 -55 24 -122 61 -68 36 -658 352 -1312 701 l-1189
635 -134 129 c-131 126 -173 179 -195 248 -7 22 -10 170 -8 436 1 283 -2 402
-9 402 -8 0 -11 283 -11 980 l0 980 200 0 c171 0 200 2 200 15 0 13 -64 15
-520 15 -456 0 -520 -2 -520 -15 0 -13 41 -15 305 -15 l305 0 0 -980 0 -980
-317 0 -316 0 6 992 c4 545 7 1149 7 1343 l0 351 308 74 c169 41 316 74 327
73 16 0 353 72 688 146 l37 9 0 -399 0 -399 -160 0 c-136 0 -160 -2 -160 -15
0 -13 26 -15 175 -15 l175 0 0 424 c0 364 -2 425 -15 430 -11 4 -632 -127
-706 -150 -15 -4 -17 72 -24 886 l-7 891 167 252 c120 179 165 255 159 265
-12 18 -953 464 -965 456 -5 -3 -9 204 -9 506 0 406 3 511 13 507 6 -3 109
-57 227 -121z m780 -416 c288 -154 528 -284 533 -289 8 -8 -259 -540 -283
-564 -6 -7 -1068 548 -1088 567 -4 5 302 566 308 566 3 0 242 -126 530 -280z
m985 -527 l405 -216 -146 -287 -146 -287 -187 99 c-102 55 -284 151 -404 215
-119 63 -220 119 -223 124 -5 8 62 141 228 457 33 61 61 112 64 112 2 0 186
-97 409 -217z m-1414 -248 l357 -168 -151 -227 -151 -227 -35 21 c-20 12 -164
91 -321 177 l-285 155 -3 276 -2 275 117 -57 c65 -31 278 -132 474 -225z
m2332 -242 c265 -141 486 -260 491 -264 8 -7 -270 -516 -299 -547 -10 -11
-100 33 -486 239 -261 138 -476 254 -479 256 -5 5 281 573 288 573 2 0 220
-115 485 -257z m870 -522 c168 -173 197 -234 267 -551 17 -80 34 -153 36 -162
5 -17 -15 -18 -315 -18 l-321 0 0 111 0 112 150 258 c83 143 150 263 150 269
0 19 -19 10 -38 -17 -10 -16 -76 -128 -147 -250 -73 -128 -134 -223 -142 -223
-14 0 -270 134 -286 150 -7 6 187 365 285 527 l19 32 110 -56 c102 -53 117
-65 232 -182z m297 -1216 l0 -455 -315 0 -315 0 0 455 0 455 315 0 315 0 0
-455z m0 -935 l0 -450 -315 0 -315 0 0 450 0 450 315 0 315 0 0 -450z m0 -995
l0 -515 -315 0 -315 0 0 515 0 515 315 0 315 0 0 -515z m0 -1050 l0 -505 -315
0 -315 0 0 505 0 505 315 0 315 0 0 -505z m-3440 -664 c0 -153 -3 -299 -6
-325 l-7 -46 -233 0 -233 0 -35 108 c-38 119 -136 495 -136 524 0 17 17 18
325 18 l325 0 0 -279z m2590 -346 c0 -168 -1 -305 -3 -305 -2 0 -124 65 -272
143 l-270 144 -3 161 -2 162 275 0 275 0 0 -305z m-2592 -126 c6 -39 23 -96
38 -126 l28 -54 -102 -102 c-97 -97 -118 -127 -90 -127 7 0 59 46 115 102
l103 103 85 -85 c47 -46 85 -88 85 -92 0 -9 -138 -260 -149 -271 -12 -12 -331
311 -406 411 -61 82 -123 189 -158 275 l-16 37 228 0 229 0 10 -71z m337 -449
c21 -22 47 -40 58 -40 14 0 87 -36 116 -56 5 -4 -142 -274 -150 -274 -12 0
-194 102 -211 118 -16 16 -12 26 59 155 41 75 78 137 82 137 4 0 25 -18 46
-40z m398 -214 l88 -48 -24 -41 c-13 -23 -48 -86 -77 -139 l-53 -98 -61 34
c-34 18 -96 52 -139 75 l-78 43 34 61 c19 34 53 97 76 140 l43 78 51 -29 c29
-16 92 -50 140 -76z m234 -125 l102 -54 -72 -143 -71 -143 -61 33 c-33 18 -84
46 -112 61 -29 16 -53 32 -53 36 0 19 145 269 155 267 5 -2 56 -27 112 -57z
m1346 -54 c70 -38 113 -67 108 -73 -5 -5 -41 -67 -81 -138 -50 -90 -68 -132
-61 -139 13 -13 7 -21 76 103 32 58 67 120 77 138 l20 32 121 -64 c67 -36 123
-70 125 -75 3 -9 -129 -275 -144 -290 -3 -4 -481 252 -510 274 -14 9 -5 30 63
153 43 78 81 142 84 142 3 0 58 -28 122 -63z m-1098 -78 c63 -33 115 -63 115
-65 0 -2 -10 -21 -23 -42 -13 -20 -45 -75 -70 -122 -26 -47 -51 -91 -55 -98
-7 -10 -33 0 -113 43 -57 32 -106 59 -109 61 -4 4 131 284 137 284 2 0 55 -27
118 -61z m385 -213 c0 -10 -127 -256 -140 -269 -5 -6 -219 100 -257 127 -1 0
32 61 73 134 41 73 72 138 68 144 -4 5 52 -21 125 -58 72 -38 131 -73 131 -78z
m1358 -59 c23 -11 42 -24 42 -28 0 -9 -148 -250 -165 -267 -10 -11 -35 -1
-134 53 l-121 67 77 148 78 148 90 -49 c49 -28 109 -60 133 -72z m-1197 -19
c65 -35 119 -66 119 -70 0 -9 -138 -260 -148 -270 -12 -11 -237 117 -236 135
2 18 133 267 141 267 2 0 58 -28 124 -62z m1471 -129 l26 -14 -79 -140 c-43
-77 -83 -141 -88 -143 -9 -3 -205 100 -224 118 -5 4 31 70 78 147 l87 141 86
-48 c48 -26 99 -54 114 -61z m-1195 -20 c110 -59 114 -62 100 -82 -7 -12 -44
-75 -82 -139 l-68 -117 -96 52 c-53 29 -104 57 -115 63 -17 10 -14 19 44 125
76 138 89 159 96 159 4 0 58 -27 121 -61z m284 -152 l136 -72 -86 -132 c-47
-73 -90 -133 -94 -133 -16 0 -257 134 -257 143 0 11 153 267 160 267 3 0 66
-33 141 -73z m1106 -954 c-2 -2 -90 43 -195 99 l-190 102 99 191 c55 104 141
270 192 368 l92 178 3 -467 c1 -257 1 -469 -1 -471z m-729 751 c4 -2 -52 -109
-120 -232 l-30 -52 -106 56 c-59 31 -112 62 -119 68 -9 8 9 43 74 144 l86 132
106 -56 c58 -31 108 -58 109 -60z m184 -98 l86 -46 -81 -139 -82 -139 -105 55
c-58 31 -109 59 -114 64 -7 6 29 79 116 237 l30 53 31 -19 c18 -11 71 -40 119
-66z"/>
<path d="M1882 8537 c-5 -7 -60 -110 -122 -229 -82 -156 -119 -218 -134 -222
-18 -5 -19 -7 -6 -20 8 -8 117 -69 243 -136 l227 -122 0 -444 0 -444 -235 0
-235 0 0 565 c0 496 -2 565 -15 565 -13 0 -15 -71 -15 -575 0 -451 3 -577 13
-580 6 -3 393 -6 860 -7 l847 -3 0 193 0 192 75 0 75 0 0 -180 c0 -173 -1
-180 -20 -180 -11 0 -20 -7 -20 -15 0 -8 5 -15 10 -15 6 0 10 -40 10 -100 0
-82 3 -100 15 -100 12 0 15 18 15 100 l0 100 250 -1 250 0 0 -85 c0 -68 3 -84
15 -84 12 0 15 17 15 94 0 74 -3 95 -15 100 -13 4 -15 35 -15 186 0 153 2 180
15 180 12 0 15 16 15 83 l0 82 -927 490 c-510 270 -984 520 -1054 557 -95 51
-129 64 -137 55z m1106 -602 l982 -519 0 -58 0 -58 -435 0 -435 0 -692 371
c-381 204 -703 378 -716 386 l-23 14 67 127 c37 70 89 169 116 220 l50 93 52
-29 c29 -15 494 -262 1034 -547z m-348 -423 l455 -245 93 2 92 3 0 -176 0
-176 -580 0 -580 0 0 435 0 436 33 -17 c17 -9 237 -127 487 -262z m920 -422
l0 -180 -35 0 -35 0 0 180 0 180 35 0 35 0 0 -180z m90 0 l0 -180 -30 0 -30 0
0 180 0 180 30 0 30 0 0 -180z m100 0 l0 -180 -35 0 -35 0 0 180 0 180 35 0
35 0 0 -180z m90 0 l0 -180 -30 0 -30 0 0 180 0 180 30 0 30 0 0 -180z m100 0
l0 -180 -35 0 -35 0 0 180 0 180 35 0 35 0 0 -180z"/>
<path d="M3350 7090 l0 -70 40 0 c29 0 40 4 40 15 0 9 -9 15 -25 15 -16 0 -25
6 -25 15 0 9 9 15 25 15 16 0 25 6 25 15 0 9 -9 15 -25 15 -14 0 -25 5 -25 10
0 6 11 10 25 10 16 0 25 6 25 15 0 11 -11 15 -40 15 l-40 0 0 -70z"/>
<path d="M2333 6673 c-17 -6 -19 -1833 -3 -1833 6 0 9 -6 8 -12 -2 -7 3 -13 9
-13 7 0 217 106 468 235 l455 235 0 698 0 697 -462 -1 c-255 0 -469 -3 -475
-6z m907 -696 l0 -673 -439 -227 c-242 -125 -442 -227 -445 -227 -3 0 -6 405
-6 900 l0 900 445 0 445 0 0 -673z"/>
<path d="M3650 6590 l0 -70 38 0 c21 0 43 5 50 12 15 15 16 55 2 63 -8 5 -7
11 1 21 18 22 -7 44 -52 44 l-39 0 0 -70z m60 30 c0 -5 -7 -10 -15 -10 -8 0
-15 5 -15 10 0 6 7 10 15 10 8 0 15 -4 15 -10z m8 -52 c-7 -19 -38 -22 -38 -4
0 10 9 16 21 16 12 0 19 -5 17 -12z"/>
<path d="M3990 6280 l0 -100 -265 0 -265 0 0 95 c0 78 -3 95 -15 95 -13 0 -15
-128 -15 -1089 l0 -1088 130 -289 c71 -159 133 -295 137 -302 6 -9 50 -13 166
-15 l157 -2 0 1398 c0 1235 -2 1397 -15 1397 -12 0 -15 -18 -15 -100z m0 -930
l0 -800 -265 0 -265 0 0 800 1 800 264 0 265 0 0 -800z m0 -960 l0 -130 -265
0 -265 0 0 130 0 130 265 0 265 0 0 -130z m0 -465 l0 -306 -136 3 -136 3 -129
285 c-71 157 -129 293 -129 303 0 16 19 17 265 17 l265 0 0 -305z"/>
<path d="M1590 4710 c0 -473 2 -540 15 -540 13 0 15 44 15 340 l0 340 260 0
260 0 0 -350 c0 -301 2 -350 15 -350 12 0 15 52 17 358 2 196 2 444 0 550 l-3
192 -289 0 -290 0 0 -540z m550 340 l0 -170 -260 0 -260 0 0 170 0 170 260 0
260 0 0 -170z"/>
<path d="M3240 4590 l0 -50 -75 0 c-43 0 -75 4 -75 10 0 6 -7 10 -15 10 -8 0
-15 -4 -15 -9 0 -5 -114 -73 -252 -151 -139 -79 -261 -148 -270 -154 -10 -6
-18 -23 -18 -38 l0 -28 -80 0 c-79 0 -80 0 -80 25 0 16 -6 25 -15 25 -13 0
-15 -79 -15 -647 -1 -1242 0 -1377 13 -1390 22 -21 797 -433 815 -433 12 0 42
46 100 150 45 83 82 155 82 161 0 5 -16 19 -35 30 l-35 21 0 827 c1 1752 1
1691 -15 1691 -11 0 -15 -12 -15 -50z m-165 -440 c9 0 15 10 15 25 0 24 2 25
75 25 l75 0 0 -212 0 -213 -318 -49 c-174 -27 -329 -53 -345 -57 l-27 -8 2
281 3 281 250 142 250 141 3 -178 c2 -149 5 -178 17 -178z m165 345 c0 -12
-15 -15 -75 -15 -60 0 -75 3 -75 15 0 12 15 15 75 15 60 0 75 -3 75 -15z m0
-65 c0 -18 -7 -20 -75 -20 -68 0 -75 2 -75 20 0 18 7 20 75 20 68 0 75 -2 75
-20z m0 -60 c0 -6 -32 -10 -75 -10 -43 0 -75 4 -75 10 0 6 32 10 75 10 43 0
75 -4 75 -10z m0 -50 c0 -6 -32 -10 -75 -10 -43 0 -75 4 -75 10 0 6 32 10 75
10 43 0 75 -4 75 -10z m0 -65 c0 -24 -2 -25 -75 -25 -73 0 -75 1 -75 25 0 24
2 25 75 25 73 0 75 -1 75 -25z m-720 -140 l0 -35 -80 0 -80 0 0 35 0 35 80 0
80 0 0 -35z m0 -95 l0 -30 -80 0 -80 0 0 30 0 30 80 0 80 0 0 -30z m0 -85 c0
-25 -1 -25 -80 -25 -79 0 -80 0 -80 25 0 25 1 25 80 25 79 0 80 0 80 -25z m0
-100 l0 -45 -80 0 -80 0 0 45 0 45 80 0 80 0 0 -45z m0 -145 c0 -54 3 -70 14
-70 8 0 16 4 18 9 3 8 622 111 669 111 18 0 19 -11 19 -400 l0 -400 -440 0
-440 0 0 410 0 410 80 0 80 0 0 -70z m720 -1165 l0 -386 -23 13 c-13 7 -211
119 -440 248 l-417 234 0 138 0 138 440 0 440 0 0 -385z m-390 -200 c223 -125
417 -234 432 -244 l26 -16 -74 -134 c-41 -74 -76 -136 -78 -139 -2 -2 -182 92
-400 209 l-396 213 0 194 0 194 43 -25 c23 -13 224 -127 447 -252z"/>
<path d="M1792 4058 c-11 -29 -23 -61 -27 -70 -5 -13 -2 -18 9 -18 9 0 19 7
22 15 4 8 18 15 34 15 16 0 30 -7 34 -15 5 -13 36 -22 36 -10 0 3 -12 34 -26
70 -33 83 -53 86 -82 13z m51 -8 c4 -15 0 -20 -13 -20 -13 0 -17 5 -13 20 3
11 9 20 13 20 4 0 10 -9 13 -20z"/>
<path d="M1580 3715 l0 -185 305 0 305 0 0 185 c0 158 -2 185 -15 185 -13 0
-15 -26 -15 -170 l0 -170 -275 0 -275 0 0 170 c0 144 -2 170 -15 170 -13 0
-15 -27 -15 -185z"/>
<path d="M1600 3365 c0 -11 11 -15 40 -15 l40 0 0 -166 0 -167 -46 6 c-30 3
-47 1 -50 -7 -2 -6 5 -65 16 -131 26 -151 60 -228 134 -299 83 -79 423 -308
447 -301 18 6 19 19 19 365 0 390 3 370 -56 370 l-24 0 0 165 0 165 35 0 c24
0 35 5 35 15 0 13 -39 15 -295 15 -256 0 -295 -2 -295 -15z m180 -180 l0 -165
-35 0 -35 0 0 165 0 165 35 0 35 0 0 -165z m90 0 l0 -165 -30 0 -30 0 0 165 0
165 30 0 30 0 0 -165z m120 0 l0 -165 -45 0 -45 0 0 165 0 165 45 0 45 0 0
-165z m100 0 l0 -165 -35 0 -35 0 0 165 0 165 35 0 35 0 0 -165z m80 -536 l0
-340 -142 97 c-238 162 -313 228 -352 302 -18 36 -42 133 -54 221 l-9 61 279
0 278 0 0 -341z"/>
<path d="M2160 3190 l0 -70 38 0 c55 0 82 23 82 69 0 49 -24 71 -78 71 l-42 0
0 -70z m84 18 c14 -23 -3 -52 -33 -56 -19 -3 -21 1 -21 38 0 37 2 41 21 38 12
-2 27 -11 33 -20z"/>
<path d="M4302 3180 c-31 -29 -30 -84 2 -105 30 -20 80 -16 84 6 2 13 -3 15
-23 12 -29 -6 -55 12 -55 38 0 22 35 43 62 36 14 -4 18 -1 16 11 -5 26 -59 27
-86 2z"/>
</g>
</svg>
