<?xml version="1.0" standalone="no"?>
<!DOCTYPE svg PUBLIC "-//W3C//DTD SVG 20010904//EN"
 "http://www.w3.org/TR/2001/REC-SVG-20010904/DTD/svg10.dtd">
<svg version="1.0" xmlns="http://www.w3.org/2000/svg"
 width="461.000000pt" height="1016.000000pt" viewBox="0 0 461.000000 1016.000000"
 preserveAspectRatio="xMidYMid meet">

<g transform="translate(0.000000,1016.000000) scale(0.100000,-0.100000)"
fill="#000000" stroke="none">
<path d="M240 10074 c0 -5 0 -376 0 -824 0 -756 1 -815 17 -825 10 -5 155 -82
323 -170 l305 -161 3 -467 2 -467 -320 160 c-177 88 -326 158 -332 154 -7 -5
-8 -617 -3 -2113 l7 -2106 30 -140 c39 -180 96 -356 150 -456 54 -101 124
-195 339 -449 96 -113 188 -222 204 -242 24 -30 341 -206 1700 -944 919 -499
1678 -909 1687 -912 17 -4 18 30 20 544 2 302 0 553 -5 559 -4 5 -321 172
-705 370 l-697 361 -3 377 c-1 207 0 377 2 377 3 0 316 -169 695 -375 380
-206 698 -375 706 -375 13 0 15 308 15 2675 l0 2676 -39 157 c-48 189 -71 257
-111 327 -40 69 -141 177 -271 289 l-104 88 -1795 955 c-987 525 -1801 957
-1807 960 -7 3 -13 1 -13 -3z m257 -160 c120 -64 220 -118 221 -119 2 -2 -67
-137 -153 -300 -86 -164 -154 -299 -153 -301 2 -2 33 -18 69 -36 35 -18 767
-406 1627 -863 l1562 -829 0 -2108 0 -2108 340 0 340 0 0 -96 0 -96 -150 4
-150 3 0 -167 0 -168 -195 0 -195 0 0 100 c0 83 -3 100 -15 100 -14 0 -15 -34
-13 -280 l3 -279 -40 24 -40 23 -3 326 -2 326 -308 -2 -307 -3 -3 -547 c-1
-302 -5 -548 -8 -548 -3 0 -253 126 -555 280 -302 154 -554 280 -559 280 -16
0 -13 -415 3 -428 6 -5 502 -265 1100 -576 689 -359 1095 -565 1106 -561 11 3
47 67 91 160 40 85 74 155 76 155 1 0 36 -18 77 -40 l74 -40 -100 -188 c-133
-250 -147 -274 -158 -270 -5 2 -587 307 -1294 678 -742 390 -1285 681 -1285
689 0 8 -6 11 -16 7 -19 -7 -341 170 -419 231 -34 27 -55 51 -55 63 0 11 -6
20 -14 20 -20 0 -52 91 -65 181 -6 46 -10 577 -11 1417 l-1 1342 346 0 345 0
0 778 c0 427 3 787 6 800 l6 22 -351 0 -351 0 0 550 c0 303 4 550 8 550 4 0
13 -5 20 -12 6 -6 13 -10 16 -7 2 2 68 109 146 238 133 220 141 236 124 248
-42 31 -946 483 -955 478 -5 -4 -9 188 -9 504 0 281 2 511 5 511 3 0 103 -52
222 -116z m853 -454 c261 -139 476 -254 478 -255 4 -4 -270 -521 -290 -548
-13 -17 -54 3 -543 263 -292 155 -533 284 -536 288 -4 4 52 117 123 252 71
135 138 262 149 283 l20 38 62 -35 c34 -19 276 -148 537 -286z m946 -504 l371
-197 -95 -182 c-52 -100 -119 -228 -149 -285 l-54 -102 -82 44 c-45 24 -224
119 -397 211 -173 92 -319 171 -323 175 -7 6 84 184 255 498 l40 73 31 -19
c18 -11 199 -108 403 -216z m-1091 -443 c0 -5 -56 -101 -125 -214 l-125 -206
-170 88 c-93 49 -246 128 -340 177 l-170 89 -3 275 -2 275 467 -237 c258 -131
468 -242 468 -247z m1989 -34 c259 -138 475 -254 479 -258 8 -8 -270 -519
-297 -548 -8 -9 -128 51 -491 244 -264 140 -482 256 -483 258 -2 2 31 70 73
152 218 417 217 415 233 408 8 -3 227 -118 486 -256z m594 -316 c81 -45 293
-232 362 -318 27 -34 64 -92 80 -127 33 -71 120 -399 120 -453 l0 -35 -325 0
-325 0 0 120 0 121 151 256 c101 170 147 259 141 265 -12 12 -22 -3 -183 -277
-67 -115 -124 -212 -126 -215 -4 -4 -238 115 -268 137 -15 10 0 41 125 265
156 278 168 298 176 298 3 0 35 -17 72 -37z m-2898 -1115 l0 -78 -310 0 c-269
0 -310 -2 -310 -15 0 -13 79 -15 655 -15 l655 0 0 -770 0 -770 -660 0 -660 0
0 1020 0 1020 315 -157 315 -158 0 -77z m3460 -313 l0 -465 -325 0 -325 0 0
465 0 465 325 0 325 0 0 -465z m0 -940 l0 -445 -325 0 -325 0 0 445 0 445 325
0 325 0 0 -445z m-3460 -670 l0 -245 -310 0 -310 0 0 245 0 245 310 0 310 0 0
-245z m3460 -260 l0 -455 -325 0 -325 0 0 455 0 455 325 0 325 0 0 -455z
m-3460 -495 l0 -480 -305 0 c-264 0 -305 -2 -305 -15 0 -13 40 -15 304 -15
l304 0 4 -352 c2 -194 3 -355 2 -357 -2 -2 -138 0 -302 4 l-299 7 -12 50 c-8
35 -11 283 -11 844 l0 794 310 0 310 0 0 -480z m3460 -540 l0 -550 -325 0
-325 0 0 550 0 550 325 0 325 0 0 -550z m-3679 -707 l224 -6 -5 -230 -5 -231
-156 -46 c-170 -51 -185 -58 -172 -71 8 -8 112 20 324 86 12 4 18 -8 28 -60 6
-36 22 -86 34 -111 19 -39 20 -47 7 -54 -8 -5 -55 -38 -104 -75 -48 -36 -89
-65 -91 -63 -1 2 -41 50 -90 108 -126 151 -181 231 -236 345 -41 85 -96 256
-124 383 l-7 32 75 0 c40 0 175 -3 298 -7z m2849 -384 c0 -237 -3 -300 -12
-296 -7 3 -132 70 -278 150 l-265 144 -3 152 -3 151 281 0 280 0 0 -301z m830
-229 c0 -286 -2 -520 -5 -520 -3 0 -155 82 -339 182 l-334 181 -6 45 c-3 25
-6 103 -6 173 l0 129 195 0 c123 0 195 -4 195 -10 0 -15 30 -12 31 3 0 6 0 85
-1 175 l-2 162 136 0 136 0 0 -520z m-2154 -207 l42 -24 -21 -42 c-98 -204
-114 -247 -89 -247 4 0 36 63 71 139 l63 140 212 -106 c116 -58 239 -121 272
-139 l62 -34 -79 -143 c-47 -86 -83 -141 -91 -139 -7 2 -192 96 -410 210
l-398 206 0 183 0 183 163 -81 c89 -45 181 -92 203 -106z m-1185 51 c35 -38
136 -102 297 -189 78 -42 142 -80 142 -83 0 -18 -154 -272 -164 -270 -22 6
-246 129 -251 139 -4 5 33 63 80 129 47 66 83 125 80 130 -10 17 -21 5 -106
-116 -44 -63 -84 -114 -88 -114 -6 0 -129 143 -204 236 -17 22 -17 23 80 93
53 39 100 71 103 71 4 0 17 -12 31 -26z m692 -412 c-5 -22 -147 -272 -154
-272 -17 0 -221 117 -220 126 0 5 35 69 77 142 l76 133 112 -60 c61 -33 110
-64 109 -69z m1356 -78 c2 -1 -31 -67 -74 -145 -54 -99 -73 -145 -66 -152 13
-13 6 -25 91 133 40 74 74 137 77 140 2 2 61 -24 132 -59 l127 -64 -83 -140
c-58 -96 -81 -143 -74 -150 13 -13 3 -27 100 135 l82 138 120 -60 c102 -52
118 -63 110 -78 -5 -9 -41 -73 -80 -140 -64 -111 -75 -142 -53 -142 4 0 43 63
87 140 43 77 81 140 85 140 3 0 60 -28 127 -63 l121 -62 -74 -153 -73 -154
-103 55 c-57 30 -295 154 -530 277 -236 122 -428 224 -428 227 0 2 35 69 77
148 l78 143 110 -55 c60 -31 112 -57 114 -59z m-1194 4 l121 -62 -74 -135
c-41 -75 -78 -140 -82 -145 -7 -7 -191 84 -232 116 -15 12 -10 26 60 151 42
75 78 137 81 137 4 1 60 -27 126 -62z m260 -135 c157 -81 149 -56 67 -226 -39
-81 -73 -147 -76 -147 -5 0 -247 130 -256 138 -8 6 149 294 158 290 4 -2 52
-26 107 -55z m304 -160 c69 -36 127 -67 128 -68 3 -2 -146 -286 -154 -295 -4
-5 -200 96 -233 121 -21 15 -21 16 49 162 38 81 73 147 76 147 4 0 64 -30 134
-67z m378 -197 c1 -1 -37 -66 -83 -145 -59 -100 -82 -147 -75 -154 13 -13 4
-26 101 140 l83 142 81 -41 c45 -22 100 -52 123 -65 l43 -25 -62 -116 c-34
-65 -71 -133 -83 -153 l-20 -36 -235 128 c-129 71 -239 130 -244 132 -5 2 25
69 68 150 42 81 74 151 71 157 -3 5 47 -18 112 -52 65 -34 119 -62 120 -62z
m1230 -19 l121 -62 -74 -154 -74 -153 -117 62 c-65 34 -119 63 -121 65 -2 2
139 305 143 305 0 0 55 -28 122 -63z m-799 -209 c64 -34 119 -62 120 -64 4 -2
-155 -282 -168 -297 -8 -9 -240 112 -240 126 0 15 155 297 163 297 5 0 61 -28
125 -62z m1100 -752 l-3 -244 -190 104 c-104 57 -194 105 -200 108 -11 4 48
123 258 520 l132 250 3 -247 c1 -136 1 -357 0 -491z m-698 534 c0 -5 -39 -76
-86 -158 l-87 -149 -125 69 c-69 37 -127 69 -128 71 -1 1 12 27 30 57 18 30
58 98 89 151 l56 97 126 -65 c69 -36 125 -69 125 -73z m248 -125 c2 -2 -33
-70 -78 -151 -56 -102 -78 -150 -71 -157 13 -13 7 -21 76 103 32 58 68 124 82
148 l24 43 67 -37 c37 -20 71 -40 76 -45 7 -6 -132 -290 -154 -313 -9 -9 -409
203 -410 217 0 4 39 75 87 157 l87 150 105 -56 c59 -31 108 -58 109 -59z"/>
<path d="M1337 8428 c-8 -13 -62 -117 -121 -232 -103 -201 -107 -210 -89 -227
10 -9 333 -184 718 -389 385 -204 704 -376 710 -381 5 -5 114 -9 242 -9 l233
0 0 -195 0 -195 -32 0 c-79 0 -78 0 -78 -126 0 -95 3 -114 15 -114 12 0 15 18
15 105 l0 105 280 0 280 0 0 -100 c0 -82 3 -100 15 -100 12 0 15 19 15 115 l0
115 -30 0 -30 0 0 195 c0 167 2 195 15 195 12 0 15 15 15 73 l0 72 -1066 555
c-585 305 -1071 556 -1079 558 -7 2 -20 -7 -28 -20z m426 -218 l197 -102 -51
-96 c-129 -240 -171 -318 -178 -325 -6 -6 -562 281 -581 300 -3 2 45 101 105
218 l110 214 100 -53 c55 -29 189 -99 298 -156z m632 -329 c220 -116 399 -215
397 -221 -6 -25 -226 -420 -234 -420 -10 0 -779 408 -791 420 -8 7 212 430
223 430 3 0 185 -94 405 -209z m769 -401 l316 -165 0 -47 0 -48 -445 0 -445 0
45 83 c25 45 78 142 117 215 40 73 78 131 85 130 6 -2 154 -77 327 -168z m-34
-485 l0 -195 -35 0 -35 0 0 195 0 195 35 0 35 0 0 -195z m90 0 l0 -195 -30 0
-30 0 0 195 0 195 30 0 30 0 0 -195z m90 0 l0 -195 -30 0 -30 0 0 195 0 195
30 0 30 0 0 -195z m140 0 l0 -195 -55 0 -55 0 0 195 0 195 55 0 55 0 0 -195z"/>
<path d="M1839 7406 c-2 -2 -3 -878 -1 -1945 2 -1715 4 -1941 17 -1941 11 0
15 11 15 40 l0 40 80 0 80 0 0 -45 0 -45 280 0 280 0 0 75 0 75 70 0 70 0 0
-85 c0 -69 3 -85 15 -85 13 0 15 197 15 1714 0 1359 -3 1716 -12 1724 -7 5
-193 105 -413 222 -220 117 -417 223 -437 236 -37 24 -51 28 -59 20z m470
-276 l421 -225 0 -835 0 -836 -425 -242 c-234 -133 -428 -242 -430 -242 -3 0
-5 588 -5 1306 0 751 4 1304 9 1302 5 -1 198 -104 430 -228z m421 -2410 l0
-480 -70 0 -70 0 0 110 c0 91 -3 110 -15 110 -13 0 -15 -58 -15 -460 l0 -460
-250 0 -250 0 0 280 c0 242 -2 280 -15 280 -12 0 -15 -13 -15 -55 l0 -55 -80
0 -80 0 2 362 3 361 425 243 c234 134 426 243 428 244 1 0 2 -216 2 -480z m0
-555 l0 -45 -70 0 -70 0 0 45 0 45 70 0 70 0 0 -45z m0 -130 l0 -55 -70 0 -70
0 0 55 0 55 70 0 70 0 0 -55z m-700 -100 c0 -25 -1 -25 -80 -25 -79 0 -80 0
-80 25 0 25 1 25 80 25 79 0 80 0 80 -25z m700 -40 l0 -55 -70 0 -70 0 0 55 0
55 70 0 70 0 0 -55z m-700 -50 l0 -35 -80 0 -80 0 0 35 0 35 80 0 80 0 0 -35z
m700 -95 l0 -60 -70 0 -70 0 0 60 0 60 70 0 70 0 0 -60z m-700 0 l0 -30 -80 0
-80 0 0 30 0 30 80 0 80 0 0 -30z m0 -90 l0 -30 -80 0 -80 0 0 30 0 30 80 0
80 0 0 -30z"/>
<path d="M2900 6960 l0 -70 40 0 c29 0 40 4 40 15 0 9 -9 15 -25 15 -16 0 -25
6 -25 15 0 9 9 15 25 15 16 0 25 6 25 15 0 9 -9 15 -25 15 -14 0 -25 5 -25 10
0 6 11 10 25 10 16 0 25 6 25 15 0 11 -11 15 -40 15 l-40 0 0 -70z"/>
<path d="M3200 6430 l0 -70 38 0 c21 0 43 5 50 12 15 15 16 55 2 63 -8 5 -7
11 1 21 18 22 -7 44 -52 44 l-39 0 0 -70z m60 30 c0 -5 -7 -10 -15 -10 -8 0
-15 5 -15 10 0 6 7 10 15 10 8 0 15 -4 15 -10z m3 -55 c1 -5 -6 -11 -15 -13
-11 -2 -18 3 -18 13 0 17 30 18 33 0z"/>
<path d="M3490 6200 l0 -110 -270 0 -270 0 0 105 c0 87 -3 105 -15 105 -13 0
-15 -95 -15 -795 l0 -795 284 0 c156 0 291 3 300 6 14 6 16 85 16 800 0 699
-2 794 -15 794 -12 0 -15 -19 -15 -110z m0 -485 l0 -345 -270 0 -270 0 0 345
0 345 270 0 270 0 0 -345z m0 -675 l0 -300 -270 0 -270 0 0 300 0 300 270 0
270 0 0 -300z"/>
<path d="M1075 5150 c-3 -5 -3 -248 1 -540 6 -432 10 -530 21 -530 11 0 13 64
13 345 l0 345 275 0 275 0 0 -340 c0 -296 2 -340 15 -340 13 0 15 66 15 535
l0 535 -304 0 c-183 0 -307 -4 -311 -10z m585 -185 l0 -165 -280 0 -280 0 0
165 0 165 280 0 280 0 0 -165z"/>
<path d="M2927 4583 c-4 -3 -7 -255 -7 -560 l0 -553 278 0 c152 0 287 -3 300
-6 l22 -6 0 566 0 566 -293 0 c-162 0 -297 -3 -300 -7z m563 -553 l0 -530
-270 0 -270 0 0 530 0 530 270 0 270 0 0 -530z"/>
<path d="M1352 3938 c-11 -29 -23 -61 -27 -70 -5 -13 -2 -18 9 -18 9 0 19 7
22 15 4 8 18 15 34 15 16 0 30 -7 34 -15 5 -13 36 -22 36 -10 0 3 -12 34 -26
70 -33 83 -53 86 -82 13z m51 -8 c4 -15 0 -20 -13 -20 -13 0 -17 5 -13 20 3
11 9 20 13 20 4 0 10 -9 13 -20z"/>
<path d="M1090 3615 l0 -185 295 0 295 0 0 185 c0 158 -2 185 -15 185 -13 0
-15 -26 -15 -170 l0 -170 -265 0 -265 0 0 170 c0 144 -2 170 -15 170 -13 0
-15 -27 -15 -185z"/>
<path d="M1120 3285 c0 -10 11 -15 35 -15 l35 0 0 -170 0 -170 -36 0 -36 0 7
-77 c17 -194 55 -306 128 -382 69 -71 399 -286 425 -276 13 5 14 50 7 353 -4
191 -11 349 -16 350 -5 2 -9 10 -9 18 0 8 -10 14 -25 14 l-25 0 0 170 0 170
25 0 c16 0 25 6 25 15 0 13 -37 15 -270 15 -233 0 -270 -2 -270 -15z m140
-185 c0 -163 -1 -170 -20 -170 -19 0 -20 7 -20 170 0 163 1 170 20 170 19 0
20 -7 20 -170z m90 0 l0 -170 -30 0 -30 0 0 170 0 170 30 0 30 0 0 -170z m90
0 l0 -170 -30 0 -30 0 0 170 0 170 30 0 30 0 0 -170z m80 0 l0 -170 -25 0 -25
0 0 170 0 170 25 0 25 0 0 -170z m60 0 c0 -144 -2 -170 -15 -170 -13 0 -15 26
-15 170 0 144 2 170 15 170 13 0 15 -26 15 -170z m75 -532 c4 -181 5 -331 3
-334 -5 -5 -240 142 -313 196 -126 93 -165 177 -189 408 l-7 62 249 -1 249 -1
8 -330z"/>
<path d="M1840 3001 c0 -227 3 -301 13 -309 27 -22 888 -482 902 -482 13 0 15
66 15 545 l0 545 -465 0 -465 0 0 -299z m900 -241 c0 -280 -2 -510 -5 -510 -3
0 -199 104 -435 232 l-430 232 0 278 0 278 435 0 435 0 0 -510z"/>
<path d="M1660 3130 l0 -70 38 0 c55 0 82 23 82 69 0 49 -24 71 -78 71 l-42 0
0 -70z m84 18 c14 -23 -3 -52 -33 -56 -19 -3 -21 1 -21 38 0 37 2 41 21 38 12
-2 27 -11 33 -20z"/>
<path d="M3831 2981 c-30 -30 -28 -86 3 -106 32 -21 80 -16 84 8 3 15 -1 17
-22 11 -30 -7 -56 10 -56 37 0 22 35 43 62 36 14 -4 18 -1 16 11 -5 26 -62 28
-87 3z"/>
</g>
</svg>
