<svg id="레이어_1" data-name="레이어 1" xmlns="http://www.w3.org/2000/svg" viewBox="0 0 256 512"><defs><style>.cls-1{fill:none;stroke:#000;stroke-miterlimit:10;}.cls-2{font-size:20px;font-family:NanumGothicBold, NanumGothic;font-weight:700;}</style></defs><title>5floor</title><path class="cls-1" d="M27.17,139.2l-2-1V335.28s.3,28,12.74,48.71c13,21.71,38.23,36.25,38.23,36.25L230.8,503.5l-1.7-54.37-69.66-37.39V374.36l69.66,37.38.85.46V142.66c-1-6-3.09-14.09-7.64-20.92-8.43-12.63-25.49-20.95-25.49-20.95L25.2,8.5V88.89l33.13,17.36v49.36l-.85-.45Z"/><text class="cls-2" transform="translate(202.57 25.25)">5층</text><polyline class="cls-1" points="197.26 139.69 33.72 52.82 50.09 21.89"/><path class="cls-1" d="M212.11,110.83,197.26,139.7v208l33.54.2"/><path class="cls-1" d="M187.45,347.28v.4H159V197h28.42Z"/><polyline class="cls-1" points="187.45 171.52 187.45 183.34 159.03 183.34 159.03 171.52 187.45 171.52"/><path class="cls-1" d="M187.45,152.11V145.7l-105.69-56L69,112.67l71.86,38,2.65,1.4h44"/><line class="cls-1" x1="65.69" y1="30.27" x2="49.3" y2="61.1"/><line class="cls-1" x1="73.83" y1="34.65" x2="57.5" y2="65.45"/><line class="cls-1" x1="104.88" y1="51.35" x2="89.07" y2="82.22"/><line class="cls-1" x1="146.17" y1="73.55" x2="130.58" y2="104.27"/><line class="cls-1" x1="155.77" y1="78.71" x2="139.68" y2="109.11"/><line class="cls-1" x1="196.82" y1="100.79" x2="181.05" y2="131.08"/><line class="cls-1" x1="197.26" y1="152.11" x2="229.95" y2="152.11"/><line class="cls-1" x1="197.26" y1="198.55" x2="229.95" y2="198.55"/><line class="cls-1" x1="197.26" y1="243.69" x2="229.95" y2="243.69"/><line class="cls-1" x1="197.26" y1="290.63" x2="229.95" y2="290.63"/><line class="cls-1" x1="197.26" y1="300.44" x2="229.95" y2="300.64"/><line class="cls-1" x1="159.03" y1="303.04" x2="187.45" y2="302.84"/><line class="cls-1" x1="159.03" y1="288.63" x2="187.45" y2="288.83"/><line class="cls-1" x1="159.03" y1="243.69" x2="187.45" y2="243.69"/><line class="cls-1" x1="185.45" y1="152.11" x2="185.25" y2="171.52"/><line class="cls-1" x1="154" y1="127.96" x2="141.81" y2="151.11"/><line class="cls-1" x1="126.86" y1="113.57" x2="114.62" y2="136.84"/><line class="cls-1" x1="113.56" y1="106.52" x2="101.41" y2="129.85"/><line class="cls-1" x1="100.59" y1="99.64" x2="88.18" y2="122.85"/><polyline class="cls-1" points="58.33 106.25 61.94 107.87 74.15 85.05 32.51 62.83 25.2 62.63"/><path class="cls-1" d="M71.15,124.59v-.51L150,165.92V399.33l-45.14-23.82.9-199.58L71.15,158.31Z"/><line class="cls-1" x1="117.19" y1="233.98" x2="105.33" y2="238.98"/><polyline class="cls-1" points="150.02 263.81 114.19 266.21 114.31 235.2"/><polyline class="cls-1" points="105.37 266.21 108.38 266.01 108.35 237.71"/><polyline class="cls-1" points="105.32 278.02 108.37 277.82 108.37 334.47 105.33 334.47"/><polyline class="cls-1" points="150.02 284.63 147.02 285.83 146.82 334.47"/><polyline class="cls-1" points="119.39 300.54 141.81 288.73 141.81 334.47 114.25 334.47 114.25 277.42 150.02 275.72"/><polyline class="cls-1" points="159.44 411.74 103.18 383.31 103.38 403.93"/><polyline class="cls-1" points="220.92 444.73 212.48 461.58 103.38 403.93"/><line class="cls-1" x1="117.31" y1="411.29" x2="126.35" y2="395.02"/><line class="cls-1" x1="143.98" y1="425.39" x2="153.44" y2="408.71"/><line class="cls-1" x1="157.93" y1="432.76" x2="166.93" y2="415.76"/><line class="cls-1" x1="171.64" y1="438.96" x2="179.94" y2="422.75"/><line class="cls-1" x1="185.16" y1="447.15" x2="194.07" y2="430.33"/><line class="cls-1" x1="198.93" y1="454.43" x2="207.73" y2="437.66"/><line class="cls-1" x1="207.81" y1="491.12" x2="229.1" y2="449.13"/><path class="cls-1" d="M216.29,474.4s-56-28.59-101.9-53.45c-14.94-8.09-29.29-15.71-39.76-21.9-11.38-6.74-15.69-21.74-15.69-21.74l-21,6.68"/><line class="cls-1" x1="49.14" y1="398.52" x2="64.05" y2="388.25"/><line class="cls-1" x1="72.37" y1="397.53" x2="63.58" y2="411.55"/><line class="cls-1" x1="85.41" y1="405.2" x2="77.23" y2="420.81"/><line class="cls-1" x1="99.01" y1="412.64" x2="91.02" y2="428.23"/><line class="cls-1" x1="112.49" y1="419.92" x2="104.27" y2="435.37"/><line class="cls-1" x1="125.91" y1="427.15" x2="118.06" y2="442.79"/><line class="cls-1" x1="139.73" y1="434.52" x2="131.31" y2="449.93"/><line class="cls-1" x1="153.1" y1="441.59" x2="144.88" y2="457.23"/><line class="cls-1" x1="166.67" y1="448.71" x2="159.03" y2="464.85"/><line class="cls-1" x1="180.47" y1="455.91" x2="172" y2="471.84"/><line class="cls-1" x1="193.99" y1="462.93" x2="185.96" y2="479.35"/><line class="cls-1" x1="207.95" y1="470.12" x2="199.29" y2="486.53"/><path class="cls-1" d="M58.94,241.79V366.7l-28.41.39"/><polyline class="cls-1" points="25.2 242.79 82.56 242.79 82.56 227.78"/><line class="cls-1" x1="58.14" y1="179.73" x2="58.14" y2="155.61"/><path class="cls-1" d="M76.55,236.48V179.73H25.2"/><rect class="cls-1" x="67.97" y="254" width="28.2" height="52.15"/><line class="cls-1" x1="25.2" y1="280.07" x2="58.94" y2="280.07"/><line class="cls-1" x1="25.2" y1="316.45" x2="58.94" y2="316.45"/><line class="cls-1" x1="58.94" y1="353.29" x2="27.3" y2="353.29"/><rect class="cls-1" x="67.97" y="320.66" width="28.2" height="17.22"/><path class="cls-1" d="M78.9,390.05A57.91,57.91,0,0,0,95,399.33l1.16.41V346.08h-27s.17,7-.2,15c-.3,6.34,0,13.65,2.7,19.76A26.49,26.49,0,0,0,78.9,390.05Z"/><line class="cls-1" x1="67.97" y1="272.31" x2="96.17" y2="272.31"/><line class="cls-1" x1="67.97" y1="285.23" x2="96.17" y2="285.23"/><line class="cls-1" x1="159.03" y1="219.57" x2="187.45" y2="219.57"/><polyline class="cls-1" points="215.28 364.5 193.86 364.5 193.86 382.91 187.45 382.91 187.45 356.89 159.44 356.89 159.44 374.36"/><polyline class="cls-1" points="229.95 358.49 215.28 358.49 215.28 403.16"/><line class="cls-1" x1="193.86" y1="375.11" x2="215.28" y2="375.11"/><line class="cls-1" x1="95.01" y1="365.63" x2="69.15" y2="365.63"/></svg>