<svg id="레이어_1" data-name="레이어 1" xmlns="http://www.w3.org/2000/svg" viewBox="0 0 256 512"><defs><style>.cls-1{fill:none;stroke:#000;stroke-miterlimit:10;}.cls-2{font-size:20px;font-family:NanumGothicBold, NanumGothic;font-weight:700;}</style></defs><title>6floor</title><path class="cls-1" d="M27.75,139.52l-2-1V335.06s.3,27.9,12.71,48.58c13,21.66,38.13,36.16,38.13,36.16l154.21,83-1.69-54.23-69.48-37.28V374l69.48,37.28.84.46V143c-1-6-3.08-14.06-7.62-20.87C214,109.5,197,101.2,197,101.2L25.79,9.17V89.34l33.05,17.31v49.23l-.85-.45Z"/><line class="cls-1" x1="66.46" y1="31.72" x2="49.52" y2="60.53"/><path class="cls-1" d="M229.15,346.93H197V139.4l-1.7-.91-161-86.43,17-28.81"/><polyline class="cls-1" points="109.16 265.37 109.16 206.27 105.44 206.27 105.44 374.04 151.19 397.77 151.19 206.27 147.38 206.27 147.38 228.51 142.09 231.06 142.09 206.27 114.55 206.27 114.55 265.37"/><path class="cls-1" d="M216.44,474.87s-27.29-15-60.46-32.49c-27.55-14.52-59-30.84-80.07-43.78-15.25-9.39-16.42-18.56-16.3-21.77l-1.62.6-18.64,6.78"/><path class="cls-1" d="M159.67,374V355.4h28.81v27.11h5.08V363.87h22v-6.78h13.56"/><polyline class="cls-1" points="220.67 445.22 212.2 460.47 103.74 402.85 103.74 382.51 159.67 413.02"/><polyline class="cls-1" points="25.79 179.16 76.63 179.16 76.63 233.39"/><polyline class="cls-1" points="25.79 241.86 83.41 241.86 83.41 224.91"/><polyline class="cls-1" points="59.68 241.86 59.68 365.57 30.87 365.57"/><line class="cls-1" x1="25.79" y1="279.14" x2="59.68" y2="279.14"/><line class="cls-1" x1="25.79" y1="316.42" x2="59.68" y2="316.42"/><line class="cls-1" x1="27.48" y1="352.01" x2="59.68" y2="352.01"/><line class="cls-1" x1="58.84" y1="155.43" x2="58.84" y2="179.16"/><polyline class="cls-1" points="25.79 62.23 32.57 62.23 74.94 84.26 61.38 107.98 57.99 106.29"/><line class="cls-1" x1="81.71" y1="40.2" x2="64.77" y2="69.01"/><line class="cls-1" x1="73.24" y1="35.11" x2="57.99" y2="63.92"/><line class="cls-1" x1="105.44" y1="52.06" x2="90.19" y2="80.87"/><line class="cls-1" x1="146.11" y1="74.09" x2="130.86" y2="102.9"/><line class="cls-1" x1="156.28" y1="79.17" x2="139.85" y2="108.74"/><line class="cls-1" x1="196.95" y1="101.2" x2="181.7" y2="130.01"/><line class="cls-1" x1="212.2" y1="111.37" x2="196.95" y2="138.49"/><line class="cls-1" x1="229.15" y1="448.6" x2="207.71" y2="490.38"/><line class="cls-1" x1="207.54" y1="469.49" x2="198.88" y2="485.62"/><line class="cls-1" x1="194.41" y1="462.89" x2="185.62" y2="478.48"/><line class="cls-1" x1="180.34" y1="455.33" x2="172.01" y2="471.16"/><line class="cls-1" x1="167.14" y1="448.28" x2="158.57" y2="463.92"/><line class="cls-1" x1="153.07" y1="440.85" x2="144.82" y2="456.51"/><line class="cls-1" x1="139.73" y1="433.83" x2="131.78" y2="449.49"/><line class="cls-1" x1="125.99" y1="426.57" x2="118.02" y2="442.09"/><line class="cls-1" x1="112.88" y1="419.56" x2="105.44" y2="435.31"/><line class="cls-1" x1="98.98" y1="411.97" x2="90.82" y2="427.44"/><line class="cls-1" x1="86.03" y1="404.63" x2="77.73" y2="420.39"/><line class="cls-1" x1="73.51" y1="397.04" x2="64" y2="411.07"/><line class="cls-1" x1="63.77" y1="388.09" x2="48.6" y2="396.98"/><line class="cls-1" x1="126.47" y1="394.91" x2="117.82" y2="410.33"/><line class="cls-1" x1="153.02" y1="409.39" x2="144.83" y2="424.68"/><line class="cls-1" x1="167.11" y1="415.32" x2="158.14" y2="431.75"/><line class="cls-1" x1="180.54" y1="422.52" x2="171.86" y2="439.04"/><line class="cls-1" x1="194.41" y1="429.96" x2="185.83" y2="446.46"/><line class="cls-1" x1="207.6" y1="437.05" x2="198.97" y2="453.44"/><polyline class="cls-1" points="151.19 194.2 105.44 194.2 105.44 175.34 71.76 157.76 71.76 123.45 150.13 166.02 150.13 194.2"/><line class="cls-1" x1="196.95" y1="308.16" x2="229.99" y2="307.95"/><line class="cls-1" x1="196.95" y1="299.9" x2="229.99" y2="300.11"/><line class="cls-1" x1="196.95" y1="289.1" x2="229.99" y2="289.52"/><line class="cls-1" x1="196.95" y1="243.34" x2="229.99" y2="243.34"/><line class="cls-1" x1="196.95" y1="197.37" x2="229.99" y2="197.37"/><line class="cls-1" x1="196.95" y1="151.2" x2="229.99" y2="150.35"/><polyline class="cls-1" points="154.68 127.5 142.3 150.98 69.43 111.8 82.35 88.49 187.63 145.26 187.84 150.98 142.3 150.98"/><path class="cls-1" d="M187.79,197.37H159.67V346.93h28.06l.11-149.56Z"/><path class="cls-1" d="M187.73,170.9l.11,11.86-28.17-.21V170.68l26.69.2V151"/><line class="cls-1" x1="159.67" y1="243.34" x2="187.84" y2="243.34"/><line class="cls-1" x1="159.67" y1="288.04" x2="187.73" y2="287.83"/><line class="cls-1" x1="159.67" y1="302.02" x2="187.73" y2="302.02"/><line class="cls-1" x1="127.06" y1="112.61" x2="114.92" y2="136.26"/><line class="cls-1" x1="140.92" y1="120.08" x2="128.32" y2="143.47"/><polyline class="cls-1" points="114.55 276.39 114.55 305.41 109.16 307.53 109.16 277.23"/><path class="cls-1" d="M69,252.87h-.22V305l28.22.43-.43-53Z"/><rect class="cls-1" x="68.75" y="319.39" width="28" height="16.95"/><path class="cls-1" d="M77.05,344.6H70.27s-.16,7.26-.63,15.88c-.33,6.07,0,13,2.57,18.94,5.24,12.1,24.54,19.4,24.54,19.4V344.6Z"/><text class="cls-2" transform="translate(202.57 25.25)">6층</text></svg>