<svg id="레이어_1" data-name="레이어 1" xmlns="http://www.w3.org/2000/svg" viewBox="0 0 256 512"><defs><style>.cls-1{fill:none;stroke:#000;stroke-miterlimit:10;}.cls-2{font-size:20px;font-family:NanumGothicBold, NanumGothic;font-weight:700;}</style></defs><title>7floor</title><path class="cls-1" d="M20.08,87.86v-78l171.45,92.2S208.58,110.4,217,123c4.55,6.82,6.66,14.86,7.64,20.9V413.18l-.85-.45-69.6-37.35v37.35l69.6,37.34,1.7,54.32L71,421.22S45.83,406.7,32.81,385c-12.43-20.72-12.73-48.66-12.73-48.66V143.2"/><line class="cls-1" x1="20.08" y1="143.2" x2="20.08" y2="87.86"/><polyline class="cls-1" points="43.79 22.64 27.37 53.06 190.85 139.45 190.85 347.33 224.63 347.33"/><polyline class="cls-1" points="209.15 404.88 209.15 358.13 224.63 358.13"/><polyline class="cls-1" points="209.15 364.73 187.85 364.73 187.85 383.33 180.66 383.33 180.66 358.13 154.18 358.13 154.18 375.38"/><line class="cls-1" x1="209.15" y1="375.38" x2="187.85" y2="375.38"/><rect class="cls-1" x="154.18" y="302.94" width="26.47" height="44.4"/><line class="cls-1" x1="180.66" y1="336.24" x2="154.18" y2="336.24"/><path class="cls-1" d="M98.76,375.38l44.7,23.55V166.75L98.76,143.2Z"/><polyline class="cls-1" points="154.18 198.55 154.18 275.04 180.66 275.04 180.66 198.55 154.18 198.55"/><line class="cls-1" x1="154.18" y1="243.39" x2="180.66" y2="243.39"/><line class="cls-1" x1="154.18" y1="208.15" x2="180.66" y2="208.15"/><polyline class="cls-1" points="180.66 172.15 180.66 183.25 152.76 183.25 152.76 172.15 180.66 172.15"/><polyline class="cls-1" points="20.08 62.96 26.17 63.26 67.27 85.16 51.67 113.06"/><line class="cls-1" x1="20.08" y1="89.66" x2="54.54" y2="107.92"/><polyline class="cls-1" points="52.27 113.06 52.27 366.76 40.87 366.76"/><polyline class="cls-1" points="26.27 370.73 40.87 370.73 40.87 366.76"/><line class="cls-1" x1="21.74" y1="352.62" x2="52.27" y2="352.62"/><polyline class="cls-1" points="214.34 445.01 206.15 461.62 96.96 404.88 97.56 383.33 154.18 412.73"/><line class="cls-1" x1="223.78" y1="450.07" x2="201.44" y2="491.45"/><path class="cls-1" d="M210.25,475.15s-35-18.3-73.09-38.12c-24.76-12.88-51-26.28-68.5-36.76a35.3,35.3,0,0,1-16.39-22.64l-20.42,5.7"/><polyline class="cls-1" points="180.66 151.75 135.06 151.45 63.07 113.06 75.36 89.66 180.66 145.45 180.66 151.75"/><line class="cls-1" x1="147.34" y1="127.8" x2="135.06" y2="151.45"/><line class="cls-1" x1="178.56" y1="172.15" x2="178.86" y2="151.6"/><line class="cls-1" x1="133.94" y1="120.7" x2="121.11" y2="144.01"/><line class="cls-1" x1="119.52" y1="113.05" x2="107.84" y2="136.94"/><line class="cls-1" x1="128.01" y1="131.48" x2="141.92" y2="138.23"/><line class="cls-1" x1="74.98" y1="39.42" x2="58.34" y2="69.42"/><line class="cls-1" x1="59.47" y1="31.07" x2="43.51" y2="61.59"/><line class="cls-1" x1="66.66" y1="34.94" x2="51.49" y2="64.46"/><line class="cls-1" x1="98.76" y1="52.2" x2="82.88" y2="82.39"/><line class="cls-1" x1="139.68" y1="74.21" x2="124.53" y2="104.41"/><line class="cls-1" x1="148.86" y1="79.15" x2="133.66" y2="109.23"/><line class="cls-1" x1="190.85" y1="100.16" x2="173.87" y2="130.48"/><line class="cls-1" x1="206.17" y1="111.61" x2="190.85" y2="139.45"/><line class="cls-1" x1="190.85" y1="151.75" x2="224.63" y2="151.31"/><line class="cls-1" x1="190.85" y1="198.55" x2="224.63" y2="198.55"/><line class="cls-1" x1="190.85" y1="243.39" x2="224.63" y2="243.39"/><line class="cls-1" x1="190.85" y1="290.04" x2="224.63" y2="290.04"/><line class="cls-1" x1="190.85" y1="300.84" x2="224.63" y2="301.44"/><polyline class="cls-1" points="143.46 279.54 141.2 279.54 141.2 301.97"/><line class="cls-1" x1="131.26" y1="305.64" x2="143.46" y2="301.14"/><polyline class="cls-1" points="134.97 304.27 134.97 278.94 98.76 276.84"/><polyline class="cls-1" points="98.76 264.24 134.97 267.54 134.97 208.15 107.46 208.15 107.46 234.84"/><polyline class="cls-1" points="143.46 267.54 141.2 267.54 141.2 208.15 143.46 208.15"/><polyline class="cls-1" points="101.46 234.84 102.66 206.65 99.06 206.35"/><line class="cls-1" x1="111.06" y1="234.84" x2="98.76" y2="239.91"/><line class="cls-1" x1="200.95" y1="437.82" x2="192.34" y2="454.45"/><line class="cls-1" x1="187.85" y1="430.8" x2="178.71" y2="447.36"/><line class="cls-1" x1="173.99" y1="423.36" x2="165.56" y2="440.53"/><line class="cls-1" x1="160.4" y1="416.06" x2="151.56" y2="433.25"/><line class="cls-1" x1="146.63" y1="408.81" x2="138.35" y2="426.39"/><line class="cls-1" x1="119.84" y1="394.9" x2="110.66" y2="412"/><path class="cls-1" d="M73.86,390.61A79.54,79.54,0,0,0,89.76,401v-55.2H63.37s0,8.21,0,18a46,46,0,0,0,2.85,17C67.66,384.39,70.56,387.72,73.86,390.61Z"/><rect class="cls-1" x="61.57" y="320.34" width="28.2" height="18"/><path class="cls-1" d="M89.76,271.44v35.1H61.57v-35.1Z"/><line class="cls-1" x1="61.57" y1="285.54" x2="89.76" y2="285.54"/><path class="cls-1" d="M89.77,258.34V134.85H61.57V258.34Z"/><line class="cls-1" x1="20.08" y1="130.45" x2="51.49" y2="130.45"/><line class="cls-1" x1="20.08" y1="167.95" x2="51.49" y2="167.95"/><line class="cls-1" x1="20.08" y1="212.95" x2="52.27" y2="212.95"/><line class="cls-1" x1="20.08" y1="259.29" x2="52.27" y2="259.29"/><line class="cls-1" x1="20.08" y1="306.54" x2="52.27" y2="306.54"/><line class="cls-1" x1="61.57" y1="181.45" x2="89.76" y2="181.45"/><line class="cls-1" x1="75.66" y1="258.34" x2="75.66" y2="181.45"/><line class="cls-1" x1="61.57" y1="196.6" x2="89.76" y2="196.6"/><line class="cls-1" x1="61.57" y1="211.75" x2="89.76" y2="211.75"/><line class="cls-1" x1="61.57" y1="227.04" x2="89.76" y2="227.04"/><line class="cls-1" x1="61.57" y1="243.39" x2="89.76" y2="243.39"/><line class="cls-1" x1="63.35" y1="366.76" x2="89.76" y2="366.76"/><text class="cls-2" transform="translate(202.57 25.25)">7층</text></svg>