<?xml version="1.0" standalone="no"?>
<!DOCTYPE svg PUBLIC "-//W3C//DTD SVG 20010904//EN"
 "http://www.w3.org/TR/2001/REC-SVG-20010904/DTD/svg10.dtd">
<svg version="1.0" xmlns="http://www.w3.org/2000/svg"
 width="534.000000pt" height="1030.000000pt" viewBox="0 0 534.000000 1030.000000"
 preserveAspectRatio="xMidYMid meet">

<g transform="translate(0.000000,1030.000000) scale(0.100000,-0.100000)"
fill="#000000" stroke="none">
<path d="M521 10063 c6 -79 -16 -6521 -22 -6529 -10 -12 34 -357 76 -602 75
-431 166 -574 544 -847 142 -103 252 -164 1814 -999 914 -489 1670 -891 1680
-894 16 -4 17 25 17 516 0 407 3 521 13 525 9 4 9 7 -1 18 -7 7 -328 176 -715
376 l-702 362 -3 370 c-1 204 0 371 3 371 8 0 1359 -731 1370 -741 36 -35 35
-91 35 2592 0 1645 -4 2624 -10 2663 -5 33 -16 122 -25 196 -25 217 -53 288
-182 451 -85 108 -136 164 -154 171 -8 3 -850 456 -1872 1007 -1022 550 -1860
1001 -1862 1001 -3 0 -5 -3 -4 -7z m268 -167 l221 -119 -29 -51 c-227 -402
-288 -516 -286 -537 1 -18 14 -31 51 -51 27 -15 757 -402 1622 -860 l1572
-832 0 -2081 0 -2080 330 3 330 3 0 -95 0 -96 -144 0 c-122 0 -145 -2 -150
-16 -3 -9 -6 -85 -6 -170 l0 -154 -190 0 -190 0 0 110 c0 91 -3 110 -15 110
-13 0 -15 -38 -15 -285 l0 -285 -60 30 -60 30 0 320 0 320 -22 5 c-13 3 -142
4 -288 3 l-265 -3 -3 -552 c-1 -304 -3 -553 -5 -553 -2 0 -248 126 -546 280
-299 154 -546 279 -548 276 -3 -2 -4 -86 -3 -186 0 -115 -3 -187 -10 -195 -7
-9 -7 -15 2 -23 20 -15 2187 -1132 2198 -1132 6 0 10 7 10 15 0 12 131 267
145 283 2 2 37 -15 78 -37 l75 -42 -57 -107 c-31 -59 -124 -237 -206 -395
-116 -224 -152 -286 -164 -282 -9 4 -44 22 -78 41 -61 34 -61 34 -48 62 8 15
39 85 70 156 46 106 54 131 43 142 -7 7 -541 295 -1187 640 -935 500 -1205
649 -1325 730 -339 230 -397 311 -416 582 -5 70 -9 1255 -10 2635 l-1 2507
146 284 c80 157 145 287 145 290 0 10 -932 466 -941 460 -5 -3 -9 219 -9 511
0 293 4 515 9 513 5 -1 108 -57 230 -122z m790 -426 c292 -157 530 -289 530
-295 0 -5 -67 -134 -148 -285 -96 -177 -154 -274 -162 -272 -27 6 -1079 567
-1079 575 0 16 314 567 321 565 5 -2 247 -131 538 -288z m958 -516 c211 -114
386 -210 388 -215 4 -6 -283 -541 -300 -557 -4 -4 -762 393 -778 408 -5 4 44
106 108 226 161 301 185 344 192 344 3 0 179 -93 390 -206z m-1079 -428 c4 -5
-206 -426 -214 -426 -3 0 -160 82 -349 183 l-345 182 0 255 0 255 452 -223
c249 -122 454 -224 456 -226z m2144 -147 c348 -187 635 -342 636 -344 4 -4
-275 -536 -287 -548 -5 -5 -299 145 -655 334 l-646 342 23 41 c13 22 77 138
142 256 127 233 143 260 150 260 3 0 289 -153 637 -341z m-2692 -139 c107 -56
223 -118 257 -137 l63 -34 -25 -49 c-18 -35 -25 -66 -25 -105 l0 -55 -315 0
-315 0 0 286 0 286 83 -45 c45 -24 170 -91 277 -147z m3455 -337 c165 -205
178 -241 220 -625 l6 -58 -310 0 -311 0 0 116 0 116 148 279 c81 153 150 279
154 279 4 0 46 -48 93 -107z m-3185 -198 l0 -125 -315 0 -315 0 0 125 0 125
315 0 315 0 0 -125z m0 -480 l0 -325 -315 0 -315 0 0 325 0 325 315 0 315 0 0
-325z m3420 -480 l0 -445 -315 0 -315 0 0 445 0 445 315 0 315 0 0 -445z
m-3420 -320 l0 -445 -320 0 -320 0 0 384 c0 210 3 411 6 445 l7 61 313 0 314
0 0 -445z m3420 -590 l0 -435 -315 0 -315 0 0 435 0 435 315 0 315 0 0 -435z
m-3420 -325 l0 -440 -320 0 -320 0 0 440 0 440 320 0 320 0 0 -440z m3420
-590 l0 -450 -315 0 -315 0 0 450 0 450 315 0 315 0 0 -450z m-3420 -320 l0
-440 -320 0 -320 0 0 440 0 440 320 0 320 0 0 -440z m3420 -720 l0 -560 -315
0 -315 0 0 560 0 560 315 0 315 0 0 -560z m-3420 -143 c0 -217 3 -428 6 -470
l7 -77 -315 0 -314 0 -17 131 c-10 72 -14 135 -11 141 3 5 6 158 5 339 l-2
329 321 0 320 0 0 -393z m6 -679 c-4 -57 -2 -157 3 -223 5 -66 8 -121 7 -123
-2 -1 -91 -34 -198 -72 -254 -89 -274 -98 -261 -111 7 -7 83 16 237 71 126 45
229 80 230 78 1 -2 8 -23 15 -48 7 -25 25 -69 41 -97 l28 -53 -164 -116 -164
-115 -28 20 c-41 30 -125 120 -161 174 -89 133 -141 312 -196 675 l-7 42 312
0 312 0 -6 -102z m2554 -269 l0 -300 -102 55 c-57 30 -173 93 -258 139 l-155
85 -3 161 -2 161 260 0 260 0 0 -301z m860 -239 c0 -286 -2 -520 -5 -520 -15
0 -696 375 -687 378 9 3 12 52 12 163 l0 159 189 0 c104 0 196 3 205 6 14 5
16 30 16 170 l0 164 135 0 135 0 0 -520z m-2282 -127 c103 -53 189 -98 191
-99 2 -2 -29 -62 -68 -134 -39 -73 -68 -136 -65 -142 4 -6 -52 20 -124 57
l-132 69 0 173 c0 95 2 173 5 173 3 0 90 -43 193 -97z m-873 -89 l23 -15 -81
-117 c-44 -64 -91 -132 -104 -149 l-24 -33 -112 82 c-62 44 -124 91 -139 103
l-27 23 162 114 162 115 59 -54 c32 -30 69 -61 81 -69z m1448 -208 c92 -48
167 -90 166 -94 -1 -17 -157 -257 -165 -255 -5 1 -120 59 -256 130 l-247 127
33 61 c18 33 52 94 75 137 l41 76 93 -48 c50 -26 167 -87 260 -134z m-1179 17
l28 -22 -71 -136 c-40 -75 -69 -141 -65 -147 4 -6 -42 15 -102 47 -153 81
-214 116 -214 121 0 3 45 70 100 149 l101 144 97 -67 c54 -37 110 -77 126 -89z
m264 -148 c4 -4 -137 -285 -143 -285 -2 0 -51 25 -109 56 l-106 56 16 31 c9
18 43 82 75 143 l60 112 102 -55 c56 -30 103 -56 105 -58z m1241 -37 c64 -33
118 -62 120 -64 4 -3 -136 -232 -153 -252 -9 -10 -37 1 -131 49 -66 34 -121
63 -123 64 -6 4 153 264 162 265 5 0 61 -28 125 -62z m-1009 -86 c25 -14 46
-26 48 -28 4 -3 -136 -265 -146 -275 -6 -6 -216 102 -235 120 -5 5 23 72 62
150 l71 141 78 -41 c42 -23 97 -53 122 -67z m1369 -101 c11 -7 -3 -36 -63
-136 -53 -89 -74 -131 -67 -138 13 -13 5 -24 86 113 37 63 72 120 77 127 7 9
40 -3 129 -47 65 -33 119 -63 119 -66 0 -4 -32 -67 -72 -140 l-72 -133 -245
126 c-136 69 -250 129 -254 133 -7 7 21 57 130 233 l24 38 97 -51 c53 -27 103
-54 111 -59z m-1079 -54 c19 -11 36 -22 38 -23 5 -3 -148 -263 -158 -269 -6
-3 -222 106 -238 120 -4 3 52 110 120 233 l30 52 86 -46 c48 -26 103 -56 122
-67z m297 -161 c9 -8 -8 -45 -69 -147 l-80 -136 -112 60 c-61 33 -115 63 -120
67 -4 5 28 69 73 144 l82 136 107 -57 c59 -31 112 -61 119 -67z m1365 -99 c-5
-7 -37 -63 -71 -126 -43 -79 -59 -117 -52 -124 13 -13 8 -21 81 113 34 63 65
119 70 123 4 5 55 -15 113 -44 l106 -53 -56 -106 c-31 -58 -65 -120 -75 -137
l-20 -33 -246 127 c-136 69 -251 130 -257 135 -7 6 1 29 21 66 17 31 50 92 73
134 l42 78 140 -71 c103 -51 138 -73 131 -82z m-1204 16 c59 -31 108 -57 110
-59 2 -1 -36 -63 -85 -137 l-88 -136 -107 57 c-59 31 -108 61 -108 65 0 14
154 267 163 267 4 0 56 -26 115 -57z m261 -139 c58 -32 107 -58 108 -58 1 -1
-30 -63 -68 -139 -39 -76 -67 -142 -63 -149 4 -6 -53 21 -127 60 -73 39 -135
75 -137 80 -4 13 158 262 171 262 5 0 58 -25 116 -56z m273 -148 l106 -56 -55
-98 c-30 -53 -66 -116 -80 -140 l-24 -43 -62 34 c-34 19 -86 46 -114 61 l-53
26 70 141 c39 77 68 145 64 151 -4 5 4 3 17 -5 13 -8 72 -40 131 -71z m1106
-709 l-3 -245 -197 105 -197 106 100 191 c54 105 143 276 197 379 l97 189 3
-240 c1 -133 1 -351 0 -485z m-762 526 l51 -25 -75 -142 c-41 -77 -75 -142
-76 -143 -1 -2 -258 136 -264 142 -2 2 31 66 74 143 l77 139 81 -44 c45 -24
104 -56 132 -70z m169 -90 c134 -70 129 -48 55 -217 l-63 -146 -41 24 c-23 12
-74 40 -113 61 -40 21 -73 42 -73 47 0 17 141 279 148 276 4 -2 43 -22 87 -45z"/>
<path d="M1626 8438 c-52 -83 -246 -462 -239 -468 4 -4 333 -177 730 -384
l722 -376 220 0 221 0 0 -200 0 -200 -40 0 -40 0 0 -115 c0 -96 3 -115 15
-115 12 0 15 18 15 100 l0 100 255 0 255 0 0 -95 c0 -78 3 -95 15 -95 12 0 15
17 15 96 0 94 -9 124 -39 124 -8 0 -11 64 -11 200 l0 200 30 0 30 0 0 80 c0
77 -1 80 -22 78 -20 -1 -143 61 -693 352 -605 321 -1408 740 -1415 740 -5 0
-16 -10 -24 -22z m535 -277 l386 -203 -72 -127 c-39 -69 -93 -165 -119 -213
-26 -49 -52 -88 -56 -88 -8 0 -870 446 -878 455 -1 1 50 102 115 223 l118 221
60 -33 c33 -18 234 -124 446 -235z m662 -348 c133 -69 243 -127 245 -129 3 -2
-223 -423 -232 -432 -4 -4 -483 243 -498 257 -4 3 36 83 89 176 132 236 143
255 149 255 3 0 114 -57 247 -127z m608 -320 l319 -168 0 -42 0 -43 -441 0
c-249 0 -439 4 -437 9 15 41 223 411 231 411 5 0 153 -75 328 -167z m-51 -483
l0 -200 -35 0 -35 0 0 200 0 200 35 0 35 0 0 -200z m120 0 l0 -200 -45 0 -45
0 0 200 0 200 45 0 45 0 0 -200z m100 0 l0 -200 -35 0 -35 0 0 200 0 200 35 0
35 0 0 -200z m90 0 l0 -200 -30 0 -30 0 0 200 0 200 30 0 30 0 0 -200z"/>
<path d="M2148 7403 c-17 -4 -18 -74 -20 -1216 -2 -667 -3 -1213 -3 -1214 1
-2 716 -93 734 -93 7 0 11 41 11 125 l0 125 60 0 60 0 0 -305 0 -305 -65 0
-65 0 0 74 c0 59 -3 75 -16 80 -30 12 -671 85 -693 79 l-21 -5 0 -654 c0 -575
2 -654 15 -654 12 0 15 18 15 105 l0 105 70 0 70 0 0 -90 c0 -65 3 -90 13 -90
6 0 125 11 262 25 138 14 258 25 268 25 15 0 17 12 17 101 l0 102 46 -7 c26
-3 55 -6 65 -6 17 0 19 -9 19 -85 0 -69 3 -85 15 -85 13 0 15 195 15 1699 0
1609 -1 1699 -17 1703 -10 3 -202 109 -426 236 -225 128 -409 231 -410 231 -1
-1 -10 -3 -19 -6z m452 -271 l385 -219 3 -736 2 -737 -60 0 -60 0 0 90 c0 73
-3 90 -15 90 -13 0 -15 -46 -15 -355 l0 -355 -42 6 c-24 3 -176 22 -338 43
l-295 36 -3 1193 -2 1193 27 -15 c16 -8 201 -114 413 -234z m390 -1752 l0 -30
-60 0 -60 0 0 30 0 30 60 0 60 0 0 -30z m0 -90 l0 -30 -60 0 -60 0 0 30 0 30
60 0 60 0 0 -30z m0 -95 l0 -35 -60 0 -60 0 0 35 0 35 60 0 60 0 0 -35z m-528
-500 c161 -19 310 -38 331 -41 l37 -6 0 -548 0 -549 -42 -5 c-24 -3 -117 -13
-208 -21 -91 -8 -185 -18 -208 -21 l-44 -5 2 138 c5 335 1 443 -15 443 -11 0
-15 -11 -15 -39 0 -38 0 -38 -46 -45 -26 -3 -57 -6 -70 -6 l-24 0 0 370 c0
204 2 370 4 370 3 0 136 -16 298 -35z m528 -245 c0 -44 -1 -45 -84 -34 -44 6
-46 8 -46 40 l0 34 65 0 65 0 0 -40z m-46 -66 c37 -6 46 -11 46 -27 0 -18 -5
-19 -46 -13 -26 3 -55 6 -65 6 -12 0 -19 7 -19 20 0 22 10 24 84 14z m0 -70
c44 -6 46 -8 46 -40 0 -38 -3 -39 -84 -28 -44 6 -46 8 -46 40 0 38 3 39 84 28z
m27 -104 c15 0 19 -8 19 -35 0 -39 -3 -40 -84 -29 -45 7 -46 8 -46 42 l0 35
46 -7 c26 -3 55 -6 65 -6z m-27 -96 c44 -6 46 -8 46 -40 0 -38 -3 -39 -84 -28
-44 6 -46 8 -46 40 0 38 3 39 84 28z m0 -100 c43 -6 46 -9 46 -35 0 -32 -5
-33 -84 -23 -43 6 -46 9 -46 35 0 32 5 33 84 23z m-644 -84 l0 -40 -70 0 -70
0 0 34 c0 34 1 35 43 39 103 9 97 11 97 -33z m671 -10 c14 0 19 -7 19 -30 0
-33 -4 -34 -84 -24 -43 6 -46 9 -46 37 0 30 0 30 46 23 26 -3 55 -6 65 -6z
m-671 -100 l0 -40 -70 0 -70 0 0 40 0 40 70 0 70 0 0 -40z m671 10 c16 0 19
-8 19 -45 0 -50 0 -50 -84 -39 l-46 7 0 45 0 45 46 -7 c26 -3 55 -6 65 -6z
m-671 -115 l0 -35 -70 0 -70 0 0 35 0 35 70 0 70 0 0 -35z"/>
<path d="M1653 7273 l-283 -3 0 -1575 c0 -1393 2 -1575 15 -1575 13 0 15 44
15 340 l0 340 265 0 265 0 0 -340 c0 -296 2 -340 15 -340 13 0 15 182 15 1580
0 1259 -3 1580 -12 1578 -7 -2 -140 -4 -295 -5z m277 -153 l0 -120 -265 0
-265 0 0 120 0 120 265 0 265 0 0 -120z m0 -480 l0 -330 -265 0 -265 0 0 165
0 165 260 0 c224 0 260 2 260 15 0 13 -36 15 -260 15 l-260 0 0 150 0 150 265
0 265 0 0 -330z m0 -485 l0 -125 -265 0 -265 0 0 125 0 125 265 0 265 0 0
-125z m0 -300 l0 -145 -265 0 -265 0 0 145 0 145 265 0 265 0 0 -145z m0 -600
l0 -425 -265 0 -265 0 0 425 0 425 265 0 265 0 0 -425z"/>
<path d="M3140 6960 c0 -63 2 -70 20 -70 15 0 20 7 20 25 0 18 5 25 20 25 11
0 20 7 20 15 0 8 -9 15 -20 15 -11 0 -20 7 -20 15 0 9 9 15 25 15 16 0 25 6
25 15 0 11 -12 15 -45 15 l-45 0 0 -70z"/>
<path d="M3460 6420 l0 -70 38 0 c21 0 43 5 50 12 15 15 16 55 2 63 -8 5 -7
11 1 21 18 22 -7 44 -52 44 l-39 0 0 -70z m60 30 c0 -5 -7 -10 -15 -10 -8 0
-15 5 -15 10 0 6 7 10 15 10 8 0 15 -4 15 -10z m8 -52 c-7 -19 -38 -22 -38 -4
0 10 9 16 21 16 12 0 19 -5 17 -12z"/>
<path d="M3200 4881 l0 -1420 28 -19 c15 -10 82 -51 150 -90 l123 -72 141 0
140 0 -6 23 c-3 12 -6 682 -6 1490 0 1297 -2 1467 -15 1467 -12 0 -15 -15 -15
-75 l0 -75 -255 0 -255 0 0 95 c0 78 -3 95 -15 95 -13 0 -15 -162 -15 -1419z
m540 849 l0 -350 -255 0 -255 0 0 350 0 350 255 0 255 0 0 -350z m0 -665 l0
-285 -255 0 -255 0 0 285 0 285 255 0 255 0 0 -285z m0 -1035 l0 -720 -115 0
-115 0 -140 81 -140 82 0 638 0 639 255 0 255 0 0 -720z"/>
<path d="M1602 4008 c-11 -29 -23 -61 -27 -70 -5 -13 -2 -18 9 -18 9 0 19 7
22 15 4 8 18 15 34 15 16 0 30 -7 34 -15 5 -13 36 -22 36 -10 0 3 -12 34 -26
70 -33 83 -53 86 -82 13z m51 -8 c4 -15 0 -20 -13 -20 -13 0 -17 5 -13 20 3
11 9 20 13 20 4 0 10 -9 13 -20z"/>
<path d="M1360 3665 l0 -185 300 0 300 0 0 175 c0 149 -2 175 -15 175 -13 0
-15 -24 -15 -160 l0 -160 -270 0 -270 0 0 170 c0 144 -2 170 -15 170 -13 0
-15 -27 -15 -185z"/>
<path d="M1390 3335 c0 -8 5 -15 10 -15 6 0 10 -70 10 -189 0 -183 -1 -189
-21 -194 -23 -6 -23 -14 6 -218 35 -240 97 -304 409 -419 75 -27 140 -50 146
-50 6 0 10 121 10 345 l0 345 -30 0 -30 0 0 190 0 190 35 0 c24 0 35 5 35 15
0 13 -39 15 -290 15 -251 0 -290 -2 -290 -15z m90 -205 c0 -183 -1 -190 -20
-190 -19 0 -20 7 -20 190 0 183 1 190 20 190 19 0 20 -7 20 -190z m100 0 l0
-190 -35 0 -35 0 0 190 0 190 35 0 35 0 0 -190z m100 0 l0 -190 -35 0 -35 0 0
190 0 190 35 0 35 0 0 -190z m100 0 l0 -190 -35 0 -35 0 0 190 0 190 35 0 35
0 0 -190z m90 0 l0 -190 -30 0 -30 0 0 190 0 190 30 0 30 0 0 -190z m60 -530
c0 -170 -4 -310 -8 -310 -12 0 -242 88 -289 111 -139 67 -187 148 -213 359 -6
47 -13 100 -16 118 l-5 32 266 0 265 0 0 -310z"/>
<path d="M2980 3340 c-17 -10 -739 -93 -812 -93 l-47 -1 -3 -254 c-2 -161 1
-257 7 -262 6 -4 198 -105 428 -224 230 -119 427 -222 437 -228 11 -7 21 -10
24 -7 3 3 6 246 6 540 1 560 2 554 -40 529z m10 -525 c0 -272 -3 -495 -7 -495
-5 1 -192 97 -418 214 l-410 212 -3 232 c-1 128 1 232 5 233 10 0 816 96 826
98 4 0 7 -222 7 -494z"/>
<path d="M1970 3100 l0 -70 38 0 c55 0 82 23 82 69 0 49 -24 71 -78 71 l-42 0
0 -70z m84 18 c14 -23 -3 -52 -33 -56 -19 -3 -21 1 -21 38 0 37 2 41 21 38 12
-2 27 -11 33 -20z"/>
<path d="M4042 3110 c-31 -29 -30 -84 2 -105 30 -20 80 -16 84 6 2 13 -3 15
-23 12 -29 -6 -55 12 -55 38 0 22 35 43 62 36 14 -4 18 -1 16 11 -5 26 -59 27
-86 2z"/>
<path d="M3697 8289 c-8 -13 -71 -136 -141 -273 -87 -171 -124 -252 -117 -259
6 -6 12 -9 14 -6 2 2 66 125 141 273 93 180 135 271 128 278 -7 7 -15 2 -25
-13z"/>
</g>
</svg>
