<?xml version="1.0" standalone="no"?>
<!DOCTYPE svg PUBLIC "-//W3C//DTD SVG 20010904//EN"
 "http://www.w3.org/TR/2001/REC-SVG-20010904/DTD/svg10.dtd">
<svg version="1.0" xmlns="http://www.w3.org/2000/svg"
 width="713.000000pt" height="881.000000pt" viewBox="0 0 713.000000 881.000000"
 preserveAspectRatio="xMidYMid meet">

<g transform="translate(0.000000,881.000000) scale(0.100000,-0.100000)"
fill="#000000" stroke="none">
<path d="M791 8598 c-5 -13 -28 -70 -51 -128 -23 -58 -44 -110 -46 -115 -3 -6
33 -30 79 -54 l84 -43 -89 -164 c-49 -91 -86 -169 -83 -175 4 -5 1 -8 -7 -7
-8 2 -46 -63 -101 -171 -72 -142 -86 -177 -75 -187 16 -15 2945 -1544 2958
-1544 18 0 11 19 -12 34 -13 8 -158 84 -322 170 -165 86 -301 158 -303 160 -3
2 33 63 78 135 l82 131 121 -65 c67 -35 288 -153 491 -263 l370 -198 3 -1157
2 -1157 -115 0 -116 0 1 328 c3 1130 0 1422 -15 1422 -12 0 -15 -13 -15 -60
l0 -60 -35 0 -35 0 0 70 c0 56 -3 70 -15 70 -13 0 -15 -105 -15 -885 l0 -885
-50 0 -50 0 0 975 c0 860 -2 975 -15 975 -13 0 -15 -181 -15 -1570 l0 -1570
245 0 245 0 0 -545 0 -545 1415 0 1415 0 0 -575 0 -575 -1599 0 -1598 0 -69
38 c-38 21 -580 307 -1204 636 l-1135 598 -163 571 -163 572 1 1160 0 1160
-163 65 c-188 75 -335 145 -393 188 -23 16 -63 63 -89 104 -26 40 -56 85 -66
100 -22 31 -92 239 -109 323 -16 77 -7 143 28 219 26 56 144 215 239 325 l38
43 218 -108 218 -109 -71 -12 c-137 -23 -242 -94 -295 -199 -61 -120 -32 -269
69 -362 196 -181 532 -130 643 97 40 80 40 182 1 262 -16 31 -28 59 -28 63 0
5 41 81 92 171 l91 164 81 -41 c45 -22 85 -47 89 -54 13 -22 20 -17 46 31 l24
45 413 0 414 0 2 -412 3 -413 168 -3 167 -2 0 -494 c0 -441 2 -495 16 -500 9
-3 46 -6 82 -6 l67 0 -3 -200 -3 -200 201 0 200 0 0 -1067 c0 -587 3 -1070 7
-1074 5 -4 87 -51 183 -104 96 -54 177 -99 178 -100 2 -2 -118 -241 -268 -531
-186 -363 -268 -530 -261 -537 6 -6 12 -9 14 -6 3 2 91 173 197 379 106 206
228 444 272 527 l79 153 25 -16 24 -16 0 -261 0 -260 -165 -324 c-91 -178
-165 -326 -165 -328 0 -2 84 -47 188 -101 175 -91 191 -97 252 -99 36 -1 80
-5 98 -9 l32 -8 0 461 c0 403 -2 461 -15 461 -13 0 -15 -56 -15 -441 l0 -441
-82 7 c-79 6 -92 11 -248 92 -91 47 -167 87 -169 88 -2 2 70 149 160 327 l164
323 -3 273 c-2 205 -6 272 -15 272 -7 1 -106 54 -222 118 l-210 118 -3 1062
c-1 706 1 1062 8 1062 5 0 10 7 10 15 0 13 -30 15 -210 15 l-210 0 0 165 0
165 210 0 210 0 0 170 c0 144 -2 170 -15 170 -13 0 -15 -24 -15 -155 l0 -155
-190 0 -190 0 0 160 c0 136 -2 160 -15 160 -13 0 -15 -22 -15 -140 l0 -140
-70 0 -70 0 0 485 0 485 73 0 c40 0 77 4 82 9 6 5 108 12 228 16 l217 7 0
-151 c0 -128 2 -151 15 -151 13 0 15 25 15 166 l0 167 -235 -8 -235 -7 0 246
c0 212 -2 246 -15 246 -13 0 -15 -35 -15 -255 l0 -255 -235 0 -235 0 0 390 c0
215 2 390 5 390 2 0 221 -117 485 -260 264 -143 484 -260 490 -260 14 0 13 16
-2 28 -43 34 -980 531 -993 526 -8 -4 -15 -1 -15 5 0 8 -119 12 -404 13 l-403
3 49 88 c47 85 55 125 20 94 -15 -13 -40 -4 -234 90 -155 76 -218 111 -221
125 -3 11 -10 17 -15 14 -6 -3 -38 -58 -72 -122 -47 -89 -59 -119 -49 -128 7
-7 13 -7 15 -1 3 6 27 51 54 102 l50 92 143 -68 c146 -70 289 -141 296 -147 2
-1 -22 -50 -53 -108 l-57 -106 -319 160 c-176 88 -320 163 -320 166 0 4 168
314 174 321 1 1 53 -21 115 -48 66 -29 118 -46 123 -41 5 5 3 13 -4 19 -7 5
-246 111 -530 234 -285 123 -518 227 -518 231 0 3 102 199 226 433 139 263
222 431 216 437 -5 5 -13 4 -19 -4 -6 -7 -104 -191 -218 -408 -114 -217 -219
-412 -232 -433 -26 -42 -25 -68 4 -64 21 2 803 -334 803 -346 0 -9 -158 -299
-169 -310 -5 -5 -131 53 -280 128 -243 121 -314 149 -282 112 5 -7 235 -124
510 -262 276 -137 501 -254 501 -258 0 -9 -158 -296 -172 -311 -4 -6 -17 -1
-32 13 -21 20 -705 365 -711 359 -49 -53 -200 -244 -241 -303 -57 -84 -94
-180 -94 -243 0 -50 32 -177 72 -292 41 -115 132 -264 196 -320 54 -49 204
-123 414 -206 l148 -59 0 -1155 0 -1155 161 -560 c88 -308 161 -566 163 -573
1 -7 6 -16 12 -21 5 -5 544 -291 1199 -636 655 -344 1194 -631 1200 -636 5 -5
651 -9 1632 -9 l1623 0 2 590 c1 325 2 597 2 605 1 14 -151 15 -1417 15
l-1417 0 0 2287 c0 1258 -3 2290 -7 2294 -5 4 -316 172 -693 374 -377 202
-688 370 -692 374 -7 7 278 552 294 562 13 9 5 45 -10 42 -6 -2 -478 254
-1047 567 -570 314 -1038 570 -1041 570 -2 0 -8 -10 -13 -22z m277 -155 l247
-136 -53 -103 -52 -103 -68 38 c-37 21 -137 74 -222 119 -85 45 -163 87 -173
94 -16 12 -14 20 25 120 24 59 44 108 46 108 2 0 114 -61 250 -137z m1040
-572 c414 -227 752 -417 752 -422 0 -21 -285 -549 -295 -547 -6 2 -349 185
-763 406 l-751 404 145 290 c80 159 148 288 153 286 4 -2 346 -189 759 -417z
m-1060 284 l150 -79 -84 -168 -84 -168 -38 23 c-20 13 -77 45 -127 72 -49 26
-105 56 -123 67 l-32 20 38 71 c22 40 60 112 86 160 26 48 51 87 56 85 5 -2
76 -39 158 -83z m-185 -354 c54 -29 108 -63 120 -76 12 -13 213 -126 447 -251
234 -125 428 -230 432 -233 4 -3 -22 -66 -57 -140 -59 -122 -68 -151 -46 -151
4 0 36 61 71 135 49 104 67 134 79 130 8 -3 243 -128 521 -277 278 -149 510
-274 517 -277 15 -8 -150 -267 -167 -263 -17 4 -2233 1161 -2243 1171 -5 5 28
81 72 170 l81 161 38 -23 c20 -13 81 -47 135 -76z m-1 -1592 c275 -58 368
-350 166 -521 -81 -69 -223 -103 -329 -78 -126 29 -221 105 -259 207 -25 68
-25 118 0 186 26 70 75 126 141 162 93 50 183 64 281 44z m2848 -844 c0 -33
-2 -35 -35 -35 -33 0 -35 2 -35 35 0 33 2 35 35 35 33 0 35 -2 35 -35z m0
-110 c0 -45 0 -45 -35 -45 -35 0 -35 0 -35 45 0 45 0 45 35 45 35 0 35 0 35
-45z m0 -110 c0 -33 -2 -35 -35 -35 -33 0 -35 2 -35 35 0 33 2 35 35 35 33 0
35 -2 35 -35z m0 -120 l0 -55 -35 0 -35 0 0 55 0 55 35 0 35 0 0 -55z m0 -125
c0 -39 -1 -40 -35 -40 -34 0 -35 1 -35 40 0 39 1 40 35 40 34 0 35 -1 35 -40z
m0 -100 c0 -28 -3 -30 -35 -30 -32 0 -35 2 -35 30 0 28 3 30 35 30 32 0 35 -2
35 -30z m0 -85 c0 -22 -4 -25 -35 -25 -31 0 -35 3 -35 25 0 22 4 25 35 25 31
0 35 -3 35 -25z m0 -90 c0 -33 -2 -35 -35 -35 -33 0 -35 2 -35 35 0 33 2 35
35 35 33 0 35 -2 35 -35z m0 -115 l0 -50 -35 0 -35 0 0 50 0 50 35 0 35 0 0
-50z m0 -110 c0 -28 -3 -30 -35 -30 -32 0 -35 2 -35 30 0 28 3 30 35 30 32 0
35 -2 35 -30z m0 -105 c0 -45 0 -45 -35 -45 -35 0 -35 0 -35 45 0 45 0 45 35
45 35 0 35 0 35 -45z m0 -110 c0 -33 -2 -35 -35 -35 -33 0 -35 2 -35 35 0 33
2 35 35 35 33 0 35 -2 35 -35z m0 -225 l0 -160 -35 0 -35 0 0 160 0 160 35 0
35 0 0 -160z m260 -475 l0 -285 -230 0 -230 0 0 285 0 285 230 0 230 0 0 -285z
m0 -580 l0 -265 -230 0 -230 0 0 265 0 265 230 0 230 0 0 -265z"/>
<path d="M2850 5215 c0 -78 3 -95 15 -95 12 0 15 16 15 80 l0 80 200 0 200 0
0 -75 c0 -61 3 -75 15 -75 13 0 15 14 13 88 l-3 87 -227 3 -228 2 0 -95z"/>
<path d="M3070 4990 l0 -70 38 0 c21 0 43 5 50 12 15 15 16 55 2 63 -8 5 -7
11 1 21 18 22 -7 44 -52 44 l-39 0 0 -70z m60 30 c0 -5 -7 -10 -15 -10 -8 0
-15 5 -15 10 0 6 7 10 15 10 8 0 15 -4 15 -10z m8 -52 c-7 -19 -38 -22 -38 -4
0 10 9 16 21 16 12 0 19 -5 17 -12z"/>
<path d="M1470 4540 c0 -5 11 -10 25 -10 34 0 31 -15 -6 -30 -20 -9 -27 -16
-20 -23 6 -6 21 -3 43 10 33 20 34 20 60 0 14 -11 31 -16 38 -12 8 5 0 14 -22
28 l-33 22 28 3 c55 7 25 22 -43 22 -40 0 -70 -4 -70 -10z"/>
<path d="M1700 4540 c0 -5 -11 -10 -25 -10 -14 0 -25 -4 -25 -10 0 -5 11 -10
25 -10 32 0 32 -20 0 -58 -18 -22 -22 -33 -14 -38 7 -4 20 2 31 16 l19 23 23
-22 c13 -13 27 -18 30 -13 3 5 -3 17 -14 27 -27 24 -27 65 0 65 11 0 20 5 20
10 0 6 -9 10 -20 10 -11 0 -20 5 -20 10 0 6 -7 10 -15 10 -8 0 -15 -4 -15 -10z"/>
<path d="M1780 4460 c0 -73 3 -90 15 -90 11 0 15 12 15 45 0 33 4 45 15 45 8
0 15 5 15 10 0 6 -7 10 -15 10 -10 0 -15 11 -15 35 0 24 -5 35 -15 35 -12 0
-15 -17 -15 -90z"/>
<path d="M1980 4495 c0 -55 0 -55 -31 -55 -37 0 -69 -16 -69 -35 0 -33 80 -47
116 -21 16 13 17 18 6 35 -7 13 -8 21 -2 21 5 0 10 9 10 20 0 11 7 20 15 20 8
0 15 5 15 10 0 6 -7 10 -15 10 -9 0 -15 9 -15 25 0 16 -6 25 -15 25 -12 0 -15
-13 -15 -55z m-9 -90 c0 -5 -7 -12 -16 -13 -23 -5 -47 6 -40 19 8 13 56 8 56
-6z"/>
<path d="M1860 4531 c0 -5 10 -11 23 -13 l22 -3 -27 -27 c-30 -31 -22 -44 16
-27 20 9 29 9 40 0 8 -7 20 -10 26 -6 7 4 1 14 -15 27 -30 23 -32 38 -5 38 11
0 20 5 20 10 0 6 -22 10 -50 10 -27 0 -50 -4 -50 -9z"/>
<path d="M1450 4450 c0 -5 18 -10 40 -10 39 0 40 -1 40 -35 0 -19 5 -35 10
-35 6 0 10 16 10 35 0 34 1 35 40 35 22 0 40 5 40 10 0 6 -37 10 -90 10 -53 0
-90 -4 -90 -10z"/>
<path d="M1494 3788 c3 -13 6 -71 6 -130 0 -89 3 -108 15 -108 12 0 15 19 15
115 l0 115 195 0 195 0 0 -105 c0 -87 3 -105 15 -105 13 0 15 20 15 120 l0
120 -231 0 -231 0 6 -22z"/>
<path d="M1702 3558 c-11 -29 -23 -61 -27 -70 -5 -13 -2 -18 9 -18 9 0 19 7
22 15 4 8 18 15 34 15 16 0 30 -7 34 -15 5 -13 36 -22 36 -10 0 3 -12 34 -26
70 -33 83 -53 86 -82 13z m51 -8 c4 -15 0 -20 -13 -20 -13 0 -17 5 -13 20 3
11 9 20 13 20 4 0 10 -9 13 -20z"/>
<path d="M1920 3400 l0 -80 -195 0 -195 0 0 70 c0 56 -3 70 -15 70 -12 0 -15
-17 -15 -95 0 -78 3 -95 15 -95 8 0 15 5 15 11 0 7 65 9 210 7 l210 -3 0 98
c0 79 -3 97 -15 97 -12 0 -15 -16 -15 -80z"/>
</g>
</svg>
