<?xml version="1.0" standalone="no"?>
<!DOCTYPE svg PUBLIC "-//W3C//DTD SVG 20010904//EN"
 "http://www.w3.org/TR/2001/REC-SVG-20010904/DTD/svg10.dtd">
<svg version="1.0" xmlns="http://www.w3.org/2000/svg"
 width="735.000000pt" height="877.000000pt" viewBox="0 0 735.000000 877.000000"
 preserveAspectRatio="xMidYMid meet">

<g transform="translate(0.000000,877.000000) scale(0.100000,-0.100000)"
fill="#000000" stroke="none">
<path d="M855 8370 c-3 -5 -15 -62 -26 -127 -16 -95 -18 -118 -7 -128 7 -7 94
-50 193 -95 99 -45 184 -86 188 -90 5 -4 -13 -46 -39 -93 l-48 -85 -71 35
c-75 38 -408 213 -412 217 -2 1 22 60 53 131 32 74 51 132 46 137 -13 13 -23
-4 -77 -132 -27 -63 -55 -119 -62 -123 -16 -10 1 -47 22 -47 7 0 231 -114 497
-252 l483 -253 -122 -214 c-67 -117 -126 -218 -131 -223 -6 -6 -192 67 -503
197 -272 114 -499 210 -506 213 -7 5 24 71 94 196 67 122 101 192 94 199 -11
11 -28 -14 -140 -220 -59 -106 -90 -153 -105 -157 -18 -5 -19 -7 -6 -19 8 -8
203 -92 433 -188 229 -96 417 -178 417 -184 0 -5 -39 -90 -86 -190 l-85 -180
-117 -1 c-175 0 -313 -49 -444 -158 -360 -298 -383 -868 -48 -1196 91 -89 159
-131 277 -173 78 -27 101 -31 205 -31 l118 -1 0 -1172 c0 -702 4 -1173 9
-1175 13 -4 333 -1089 327 -1110 -2 -10 1 -21 8 -27 6 -5 545 -300 1199 -655
l1187 -646 1658 0 1657 0 -3 577 c-1 318 -4 584 -7 590 -3 10 -304 13 -1455
13 l-1450 0 0 2315 c0 2103 -1 2315 -16 2315 -19 0 -753 428 -774 451 -8 10
-150 88 -315 174 -165 86 -304 160 -309 165 -4 4 49 134 123 296 126 275 131
288 114 305 -10 9 -317 178 -683 374 -366 196 -687 370 -714 386 -45 27 -86
33 -71 10 6 -11 -85 -181 -98 -181 -4 0 -109 54 -232 120 -124 66 -227 120
-230 120 -2 0 -7 -4 -10 -10z m357 -207 l106 -56 -15 -24 c-12 -18 -13 -27 -5
-35 15 -15 8 -24 87 120 38 69 73 122 80 120 31 -7 1405 -753 1405 -763 0 -12
-239 -537 -250 -548 -4 -5 -339 164 -743 375 l-735 384 55 99 c45 80 52 100
41 110 -7 7 -98 51 -203 99 -104 48 -191 88 -192 90 -3 3 26 175 32 194 3 8
40 -6 117 -48 62 -33 161 -86 220 -117z m666 -852 c-2 -3 -56 -111 -121 -239
-116 -230 -118 -233 -140 -219 -12 8 -70 42 -130 77 -59 34 -110 66 -113 71
-4 7 75 153 208 382 l39 68 130 -67 c71 -37 128 -70 127 -73z m675 -346 c251
-132 457 -242 457 -246 0 -4 -37 -68 -81 -143 l-81 -135 -42 21 c-22 11 -263
135 -535 275 -314 162 -497 251 -504 244 -6 -6 -1 -15 14 -24 13 -8 258 -135
544 -282 286 -146 529 -275 540 -285 11 -9 135 -77 275 -150 140 -73 257 -136
258 -141 9 -24 35 2 126 127 55 74 105 133 111 132 6 -2 100 -55 208 -118
l197 -115 2 -2310 3 -2310 1453 -3 1452 -2 0 -560 0 -560 -1440 0 -1440 0 0
495 c0 441 -2 495 -16 495 -19 0 -25 -13 -230 -537 -93 -238 -172 -433 -175
-433 -7 0 -2318 1255 -2325 1263 -2 2 -81 262 -176 578 l-173 574 -2 1159 c-2
770 0 1163 7 1170 25 25 10 33 -42 24 -29 -6 -93 -8 -143 -5 -304 19 -552 234
-641 557 -28 100 -25 301 4 404 80 278 287 478 552 532 83 17 220 16 264 -2
16 -6 18 -4 13 16 -4 17 18 74 80 204 47 100 86 182 88 184 8 9 221 -96 342
-168 l143 -85 0 -178 0 -177 398 1 397 1 177 -94 177 -93 1 -1022 c0 -903 2
-1023 15 -1023 13 0 15 57 15 450 l0 450 305 0 c197 0 305 -4 305 -10 0 -5 7
-10 15 -10 13 0 15 53 15 418 0 403 -1 418 -19 429 -11 7 -404 218 -873 469
-469 251 -857 459 -861 464 -5 4 37 98 93 209 55 111 97 207 94 213 -4 6 40
-13 97 -43 57 -31 310 -163 562 -294z m-743 -187 c0 -5 -30 -62 -67 -128 l-68
-120 -5 143 c-3 78 -1 152 4 163 8 21 9 21 72 -14 35 -20 64 -39 64 -44z m370
-189 l195 -104 -172 -3 c-94 -1 -250 -1 -346 0 l-174 3 80 142 81 143 70 -39
c39 -21 159 -85 266 -142z m1089 -8 c20 -16 97 -64 171 -106 74 -43 140 -82
147 -87 9 -7 -13 -44 -79 -133 l-91 -124 -216 111 c-254 131 -301 158 -313
178 -7 11 11 51 72 153 l83 137 95 -50 c52 -28 111 -64 131 -79z m-139 -500
l295 -158 3 -387 2 -386 -305 0 -305 0 0 545 c0 300 3 545 8 545 4 0 140 -72
302 -159z m907 -5698 c-2 -2 -83 -2 -180 -1 l-175 3 176 452 177 452 3 -451
c1 -248 1 -453 -1 -455z"/>
<path d="M765 6226 c-104 -26 -179 -87 -227 -183 -28 -58 -33 -77 -32 -143 0
-159 99 -284 259 -326 66 -18 115 -18 115 0 0 9 -18 15 -55 19 -113 12 -224
88 -268 186 -31 67 -30 179 1 243 50 101 151 171 265 184 38 4 57 11 57 20 0
17 -46 17 -115 0z"/>
<path d="M3720 5350 c0 -749 2 -850 15 -850 13 0 15 27 15 180 l0 180 35 0 35
0 0 -175 c0 -149 2 -175 15 -175 13 0 15 98 15 820 0 722 -2 820 -15 820 -13
0 -15 -29 -15 -205 l0 -205 -35 0 -35 0 0 230 c0 198 -2 230 -15 230 -13 0
-15 -101 -15 -850z m100 305 l0 -55 -35 0 -35 0 0 55 0 55 35 0 35 0 0 -55z
m0 -150 l0 -65 -35 0 -35 0 0 65 0 65 35 0 35 0 0 -65z m0 -150 l0 -55 -35 0
-35 0 0 55 0 55 35 0 35 0 0 -55z m0 -145 l0 -60 -35 0 -35 0 0 60 0 60 35 0
35 0 0 -60z m0 -155 l0 -65 -35 0 -35 0 0 65 0 65 35 0 35 0 0 -65z m0 -130
c0 -33 -2 -35 -35 -35 -33 0 -35 2 -35 35 0 33 2 35 35 35 33 0 35 -2 35 -35z"/>
<path d="M3620 5220 c0 -687 2 -780 15 -780 13 0 15 93 15 780 0 687 -2 780
-15 780 -13 0 -15 -93 -15 -780z"/>
<path d="M3200 4990 l0 -70 38 0 c21 0 43 5 50 12 15 15 16 55 2 63 -8 5 -7
11 1 21 18 22 -7 44 -52 44 l-39 0 0 -70z m60 30 c0 -5 -7 -10 -15 -10 -8 0
-15 5 -15 10 0 6 7 10 15 10 8 0 15 -4 15 -10z m8 -52 c-7 -19 -38 -22 -38 -4
0 10 9 16 21 16 12 0 19 -5 17 -12z"/>
<path d="M3380 4850 l0 -80 -180 0 -180 0 0 65 c0 51 -3 65 -15 65 -13 0 -15
-45 -15 -342 l0 -343 185 3 185 4 2 -1079 3 -1078 40 -20 c39 -19 337 -184
343 -190 3 -2 -355 -724 -363 -733 -2 -2 -18 4 -35 13 -49 25 -64 2 -16 -25
20 -12 36 -24 36 -27 0 -4 -138 -263 -145 -271 -1 -1 -60 25 -130 58 -75 36
-132 57 -137 52 -5 -5 -3 -13 4 -19 17 -13 617 -293 629 -293 5 0 9 5 9 10 0
6 21 53 46 107 44 92 46 99 39 158 l-6 62 93 199 93 199 -3 553 c-2 480 -4
552 -17 552 -12 0 -15 -16 -15 -80 l0 -80 -155 0 -155 0 0 75 c0 62 -3 75 -16
75 -15 0 -15 -20 -9 -205 l7 -206 -56 28 -56 27 0 269 0 268 250 -3 250 -3 0
783 c0 688 -2 782 -15 782 -13 0 -15 -92 -15 -765 l0 -765 -235 0 -235 0 0
785 c0 517 3 785 10 785 6 0 10 125 10 355 0 309 -2 355 -15 355 -12 0 -15
-16 -15 -80z m0 -355 l0 -245 -180 0 -180 0 0 245 0 245 180 0 180 0 0 -245z
m450 -2440 c0 -113 -2 -205 -5 -205 -10 0 -259 142 -277 158 -15 13 -18 33
-18 134 l0 118 150 0 150 0 0 -205z m2 -478 l3 -230 -88 -186 c-49 -102 -89
-187 -90 -187 -1 -1 -57 27 -124 63 l-122 64 184 370 185 369 25 -16 24 -16 3
-231z m-178 -688 c8 -52 6 -60 -34 -147 -24 -51 -45 -92 -48 -92 -17 0 -312
145 -312 153 0 9 40 86 112 215 l30 53 121 -64 122 -64 9 -54z"/>
<path d="M1610 3695 c0 -122 2 -145 15 -145 13 0 15 21 15 130 l0 130 195 0
195 0 0 -125 c0 -104 2 -125 15 -125 13 0 15 22 15 140 l0 140 -225 0 -225 0
0 -145z"/>
<path d="M1802 3488 c-11 -29 -23 -61 -27 -70 -5 -13 -2 -18 9 -18 9 0 19 7
22 15 4 8 18 15 34 15 16 0 30 -7 34 -15 5 -13 36 -22 36 -10 0 3 -12 34 -26
70 -33 83 -53 86 -82 13z m51 -8 c4 -15 0 -20 -13 -20 -13 0 -17 5 -13 20 3
11 9 20 13 20 4 0 10 -9 13 -20z"/>
<path d="M1620 3200 l0 -240 220 0 220 0 0 235 c0 202 -2 235 -15 235 -13 0
-15 -31 -15 -220 l0 -220 -190 0 -190 0 0 225 c0 193 -2 225 -15 225 -13 0
-15 -33 -15 -240z"/>
<path d="M3642 2530 c-31 -29 -30 -84 2 -105 30 -20 80 -16 84 6 2 13 -3 15
-23 12 -29 -6 -55 12 -55 38 0 22 35 43 62 36 14 -4 18 -1 16 11 -5 26 -59 27
-86 2z"/>
</g>
</svg>
