<?xml version="1.0" standalone="no"?>
<!DOCTYPE svg PUBLIC "-//W3C//DTD SVG 20010904//EN"
 "http://www.w3.org/TR/2001/REC-SVG-20010904/DTD/svg10.dtd">
<svg version="1.0" xmlns="http://www.w3.org/2000/svg"
 width="720.000000pt" height="956.000000pt" viewBox="0 0 720.000000 956.000000"
 preserveAspectRatio="xMidYMid meet">

<g transform="translate(0.000000,956.000000) scale(0.100000,-0.100000)"
fill="#000000" stroke="none">
<path d="M3760 8704 c-105 -213 -190 -390 -190 -394 0 -7 -192 -372 -346 -657
l-45 -83 -194 101 c-107 55 -202 99 -211 97 -16 -3 -122 -205 -571 -1088 -113
-223 -210 -410 -215 -416 -4 -6 -26 -47 -47 -91 -26 -54 -46 -82 -60 -86 l-21
-5 0 -1061 c0 -955 2 -1062 16 -1068 8 -3 20 -1 27 6 7 7 54 11 129 11 l118 0
0 -110 0 -110 -573 0 c-443 0 -577 -3 -590 -12 -16 -12 -17 -43 -15 -363 l3
-350 235 0 235 0 3 253 2 252 365 0 365 0 0 -1092 -1 -1093 433 -258 c238
-142 439 -261 446 -266 10 -5 -16 -68 -103 -247 -138 -285 -137 -273 -18 -323
43 -18 96 -42 119 -52 36 -17 61 -19 229 -17 l188 3 -2 200 -2 200 1363 0
c1356 0 1363 0 1363 20 0 20 -7 20 -1361 22 -749 2 -1369 5 -1377 9 -34 13
-37 -5 -37 -207 l0 -199 -154 0 -154 0 -109 46 c-59 26 -109 47 -111 49 -1 1
50 109 113 240 96 197 114 242 107 263 -6 20 -103 81 -445 285 l-437 260 0
1103 c0 606 -3 1104 -7 1106 -5 2 -190 1 -413 -2 l-405 -5 -3 -252 -2 -253
-190 0 -190 0 0 315 0 316 587 -1 588 -1 8 158 c5 87 10 322 10 523 2 359 2
365 -18 365 -20 0 -20 -8 -23 -349 -1 -237 -6 -354 -13 -363 -8 -9 -43 -13
-130 -13 l-119 0 0 450 0 450 338 2 337 3 -2 25 c-1 14 -2 217 -3 451 l-1 425
382 734 c209 403 389 741 399 749 28 24 273 509 266 526 -15 40 -40 4 -158
-224 l-123 -239 -57 87 c-32 47 -58 89 -58 93 0 3 92 179 205 391 113 212 205
389 205 394 0 9 327 683 336 692 6 6 313 -141 341 -162 13 -11 29 -17 36 -14
19 8 129 206 123 222 -12 32 -37 12 -80 -62 -25 -43 -47 -82 -49 -88 -2 -5
-86 30 -186 78 -100 48 -189 87 -197 87 -10 0 -83 -138 -204 -386z m-765
-1096 l200 -102 56 -86 56 -86 -228 -438 c-125 -241 -230 -440 -232 -443 -3
-2 -129 62 -280 143 l-276 148 180 350 c99 193 210 411 247 484 37 72 69 132
72 132 3 1 95 -45 205 -102z m-410 -1078 c127 -68 232 -124 233 -126 4 -3
-185 -373 -220 -432 l-20 -32 -266 136 c-147 75 -271 140 -275 144 -8 7 82
197 185 387 l50 93 41 -24 c23 -13 146 -79 272 -146z m-42 -663 c-7 -15 -13
-33 -12 -40 1 -6 1 -65 0 -129 l-1 -118 -310 0 -310 0 0 213 0 212 46 87 45
88 278 -143 279 -142 -15 -28z m-13 -617 l0 -280 -310 0 -310 0 0 280 0 280
310 0 310 0 0 -280z"/>
<path d="M2692 7340 c-31 -29 -30 -84 2 -105 30 -20 80 -16 84 6 2 13 -3 15
-23 12 -29 -6 -55 12 -55 38 0 22 35 43 62 36 14 -4 18 -1 16 11 -5 26 -59 27
-86 2z"/>
<path d="M2822 7308 c-11 -29 -23 -61 -27 -70 -5 -13 -2 -18 9 -18 9 0 19 7
22 15 4 8 18 15 34 15 16 0 30 -7 34 -15 5 -13 36 -22 36 -10 0 3 -12 34 -26
70 -33 83 -53 86 -82 13z m51 -8 c4 -15 0 -20 -13 -20 -13 0 -17 5 -13 20 3
11 9 20 13 20 4 0 10 -9 13 -20z"/>
<path d="M2950 7302 c0 -66 11 -82 56 -82 42 0 57 20 62 86 4 49 3 54 -16 54
-18 0 -21 -7 -24 -52 -3 -45 -6 -53 -23 -53 -17 0 -20 8 -23 53 -2 37 -7 52
-18 52 -10 0 -14 -14 -14 -58z"/>
<path d="M2520 7086 l0 -75 43 1 c53 0 67 12 67 53 0 38 -21 60 -50 52 -16 -4
-20 0 -20 19 0 17 -6 24 -20 24 -18 0 -20 -7 -20 -74z m75 -22 c0 -10 -8 -20
-17 -22 -18 -3 -26 27 -11 42 12 11 28 0 28 -20z"/>
<path d="M2650 7076 c0 -52 12 -64 63 -64 l37 0 0 54 c0 40 -4 54 -14 54 -10
0 -16 -13 -18 -37 -2 -26 -8 -38 -18 -38 -10 0 -16 12 -18 38 -5 56 -32 50
-32 -7z"/>
<path d="M2770 7064 c0 -66 24 -76 34 -14 4 26 11 40 21 40 8 0 15 6 15 14 0
9 -12 14 -35 14 l-35 0 0 -54z"/>
<path d="M2860 7100 c-25 -46 -1 -98 41 -87 13 3 19 1 16 -6 -2 -7 -16 -12
-31 -12 -39 1 -30 -29 11 -33 43 -4 63 26 63 99 l0 56 -45 1 c-34 1 -47 -3
-55 -18z m68 -33 c4 -20 -25 -34 -40 -19 -15 15 -1 44 19 40 10 -2 19 -11 21
-21z"/>
<path d="M2998 7109 c-22 -12 -24 -71 -4 -88 21 -18 70 -10 74 12 3 14 -1 17
-21 12 -14 -4 -28 -2 -31 4 -5 7 5 11 28 11 38 0 43 8 26 41 -12 21 -45 24
-72 8z m47 -19 c3 -5 -3 -10 -15 -10 -12 0 -18 5 -15 10 3 6 10 10 15 10 5 0
12 -4 15 -10z"/>
<path d="M3090 7064 c0 -66 24 -76 34 -14 4 26 11 40 21 40 8 0 15 6 15 14 0
9 -12 14 -35 14 l-35 0 0 -54z"/>
<path d="M2160 6421 c0 -5 12 -11 28 -13 l27 -4 -35 -16 c-29 -13 -32 -17 -17
-23 10 -4 27 -1 41 9 22 14 27 14 56 0 21 -11 35 -13 42 -6 6 6 -2 14 -24 23
l-33 13 28 3 c54 8 26 23 -43 23 -38 0 -70 -4 -70 -9z"/>
<path d="M2480 6380 c0 -27 5 -50 10 -50 6 0 10 23 10 50 0 28 -4 50 -10 50
-5 0 -10 -22 -10 -50z"/>
<path d="M2670 6375 c0 -55 0 -55 -31 -55 -37 0 -69 -16 -69 -35 0 -33 80 -47
116 -21 16 13 17 18 6 35 -7 13 -8 21 -2 21 5 0 10 11 10 25 0 16 6 25 15 25
8 0 15 5 15 10 0 6 -7 10 -15 10 -8 0 -15 9 -15 20 0 11 -7 20 -15 20 -12 0
-15 -13 -15 -55z m-9 -90 c0 -5 -7 -12 -16 -13 -23 -5 -47 6 -40 19 8 13 56 8
56 -6z"/>
<path d="M2390 6403 c0 -9 -9 -27 -21 -39 -24 -25 -11 -40 17 -20 15 12 22 12
40 -1 14 -9 24 -10 28 -4 4 5 -3 15 -14 21 -12 6 -20 21 -20 35 0 16 -6 25
-15 25 -8 0 -15 -8 -15 -17z"/>
<path d="M2550 6380 l0 -40 50 0 c28 0 50 5 50 10 0 6 -16 10 -35 10 -28 0
-35 4 -35 20 0 16 7 20 35 20 19 0 35 5 35 10 0 6 -22 10 -50 10 l-50 0 0 -40z"/>
<path d="M2140 6340 c0 -5 19 -10 43 -11 40 -1 41 -1 15 -11 -20 -7 -28 -17
-28 -33 0 -26 17 -35 65 -35 63 0 81 49 27 69 -25 9 -24 9 16 10 23 1 42 6 42
11 0 6 -37 10 -90 10 -53 0 -90 -4 -90 -10z m125 -55 c0 -12 -40 -19 -61 -11
-9 3 -12 11 -9 16 8 14 70 9 70 -5z"/>
<path d="M2370 6310 c0 -5 25 -10 55 -10 52 0 55 -1 55 -25 0 -14 5 -25 10
-25 6 0 10 16 10 35 l0 35 -65 0 c-37 0 -65 -4 -65 -10z"/>
<path d="M1956 5275 c-25 -26 -21 -73 8 -87 14 -6 32 -8 40 -5 24 10 19 34 -6
33 -17 -1 -23 5 -23 19 0 14 6 20 23 19 16 0 22 4 20 15 -4 22 -42 26 -62 6z"/>
<path d="M2057 5283 c-16 -15 -6 -30 18 -25 14 2 25 0 25 -6 0 -6 -12 -12 -27
-14 -22 -2 -28 -8 -28 -28 0 -22 4 -25 43 -27 l42 -2 0 43 c0 23 -5 47 -12 54
-13 13 -50 16 -61 5z m38 -73 c-3 -5 -10 -10 -16 -10 -5 0 -9 5 -9 10 0 6 7
10 16 10 8 0 12 -4 9 -10z"/>
<path d="M2150 5234 c0 -41 4 -54 15 -54 10 0 15 10 15 28 0 15 4 33 9 41 14
22 31 3 31 -35 0 -24 4 -34 16 -34 12 0 14 10 12 53 l-3 52 -47 1 -48 2 0 -54z"/>
<path d="M2288 5279 c-21 -12 -24 -69 -6 -87 17 -17 63 -15 78 3 7 8 13 26 13
40 0 48 -42 69 -85 44z m52 -44 c0 -25 -23 -35 -35 -15 -10 16 2 40 20 40 9 0
15 -9 15 -25z"/>
<path d="M2390 5234 c0 -41 4 -54 15 -54 10 0 15 10 15 28 0 15 4 33 9 41 14
22 31 3 31 -35 0 -24 4 -34 16 -34 12 0 14 10 12 53 l-3 52 -47 1 -48 2 0 -54z"/>
<path d="M5307 8583 c-4 -3 -7 -15 -7 -25 0 -10 -198 -392 -441 -849 -253
-477 -438 -837 -435 -846 3 -8 13 -13 23 -11 10 2 135 228 341 615 l324 612
600 -300 c330 -165 607 -298 614 -295 44 17 -7 46 -586 336 -330 165 -600 303
-600 306 0 12 205 394 212 394 5 0 1063 -540 1575 -804 21 -11 15 -24 -244
-516 -146 -278 -266 -506 -268 -508 -6 -7 -572 264 -586 281 -9 11 -23 18 -30
14 -8 -3 -122 -219 -254 -480 -185 -368 -237 -478 -228 -488 6 -6 18 -9 25 -6
7 2 114 205 238 451 124 245 228 446 232 446 15 0 578 -265 576 -271 -2 -3
-113 -215 -248 -471 -179 -339 -248 -461 -255 -452 -5 7 -66 38 -134 69 -68
31 -132 62 -142 68 -12 7 -22 8 -28 2 -24 -26 -242 -458 -237 -471 12 -32 37
-10 79 69 25 45 75 141 113 213 l69 131 125 -58 c69 -32 132 -57 141 -55 10 2
-31 -85 -113 -241 -72 -136 -127 -252 -124 -260 3 -8 13 -13 23 -11 10 2 282
507 759 1413 409 776 744 1415 744 1422 0 6 -12 18 -27 26 -16 7 -110 57 -211
111 -166 89 -212 105 -212 77 0 -15 -151 -251 -160 -251 -5 0 -281 140 -614
310 -332 171 -609 310 -614 310 -5 0 -12 -3 -15 -7z m1648 -513 c77 -40 141
-74 143 -75 3 -2 -113 -229 -124 -243 -1 -2 -86 40 -189 93 -181 94 -186 98
-172 119 8 11 38 59 67 106 74 119 67 113 104 91 17 -10 94 -51 171 -91z"/>
<path d="M3860 7945 c0 -8 7 -15 15 -15 8 0 15 7 15 15 0 8 -7 15 -15 15 -8 0
-15 -7 -15 -15z"/>
<path d="M3650 7880 l0 -70 40 0 c29 0 40 4 40 15 0 9 -9 15 -25 15 -16 0 -25
6 -25 15 0 9 9 15 25 15 16 0 25 6 25 15 0 9 -9 15 -25 15 -14 0 -25 5 -25 10
0 6 11 10 25 10 16 0 25 6 25 15 0 11 -11 15 -40 15 l-40 0 0 -70z"/>
<path d="M3917 7930 c-19 -22 -22 -40 -8 -40 6 0 11 -17 13 -37 3 -33 7 -38
31 -41 19 -2 27 1 27 12 0 9 -7 16 -15 16 -9 0 -15 9 -15 25 0 16 6 25 15 25
8 0 15 7 15 15 0 8 -7 15 -15 15 -8 0 -15 7 -15 15 0 21 -12 19 -33 -5z"/>
<path d="M4023 7938 c-26 -12 -32 -44 -8 -34 12 4 15 -4 15 -44 0 -38 4 -50
15 -50 12 0 15 14 15 70 0 73 -1 75 -37 58z"/>
<path d="M3758 7892 c20 -27 20 -28 0 -55 -20 -27 -20 -27 0 -27 11 0 23 7 26
16 6 16 8 16 24 0 31 -27 45 -20 26 12 -15 27 -15 31 1 55 20 31 3 38 -27 11
-16 -16 -18 -16 -24 0 -3 9 -15 16 -26 16 -19 0 -19 0 0 -28z"/>
<path d="M3860 7865 c0 -42 3 -55 15 -55 12 0 15 13 15 55 0 42 -3 55 -15 55
-12 0 -15 -13 -15 -55z"/>
<path d="M3747 7673 c-159 -284 -184 -330 -197 -350 -10 -15 -11 -26 -5 -32 6
-5 149 -75 318 -156 262 -124 312 -145 334 -138 21 7 50 51 136 202 60 106
106 199 103 207 -14 37 -41 4 -143 -176 -59 -105 -110 -189 -114 -188 -4 2
-135 63 -292 137 l-283 135 119 214 c65 117 116 220 113 228 -12 32 -38 9 -89
-83z"/>
<path d="M4490 7625 c0 -8 7 -15 15 -15 8 0 15 7 15 15 0 8 -7 15 -15 15 -8 0
-15 -7 -15 -15z"/>
<path d="M4280 7560 l0 -70 40 0 c29 0 40 4 40 15 0 9 -9 15 -25 15 -16 0 -25
6 -25 15 0 9 9 15 25 15 16 0 25 6 25 15 0 9 -9 15 -25 15 -14 0 -25 5 -25 10
0 6 11 10 25 10 16 0 25 6 25 15 0 11 -11 15 -40 15 l-40 0 0 -70z"/>
<path d="M4547 7610 c-19 -22 -22 -40 -8 -40 6 0 11 -17 13 -37 3 -33 7 -38
31 -41 19 -2 27 1 27 12 0 9 -7 16 -15 16 -9 0 -15 9 -15 25 0 16 6 25 15 25
8 0 15 7 15 15 0 8 -7 15 -15 15 -8 0 -15 7 -15 15 0 21 -12 19 -33 -5z"/>
<path d="M4637 7623 c-13 -13 -7 -32 8 -27 8 4 23 3 32 0 15 -6 11 -12 -20
-41 -53 -48 -49 -65 13 -65 38 0 50 4 50 15 0 10 -10 15 -32 15 l-33 0 33 26
c33 27 40 52 20 72 -13 13 -60 16 -71 5z"/>
<path d="M4388 7572 c20 -27 20 -28 0 -55 -20 -27 -20 -27 0 -27 11 0 23 7 26
16 6 16 8 16 24 0 31 -27 45 -20 26 12 -15 27 -15 31 1 55 20 31 3 38 -27 11
-16 -16 -18 -16 -24 0 -3 9 -15 16 -26 16 -19 0 -19 0 0 -28z"/>
<path d="M4490 7545 c0 -42 3 -55 15 -55 12 0 15 13 15 55 0 42 -3 55 -15 55
-12 0 -15 -13 -15 -55z"/>
<path d="M5090 7200 c0 -5 -11 -10 -25 -10 -14 0 -25 -4 -25 -10 0 -6 27 -10
60 -10 33 0 60 4 60 10 0 6 -9 10 -20 10 -11 0 -20 5 -20 10 0 6 -7 10 -15 10
-8 0 -15 -4 -15 -10z"/>
<path d="M5170 7155 c0 -42 3 -55 15 -55 8 0 15 7 15 15 0 8 7 15 15 15 8 0
15 5 15 10 0 6 -7 10 -15 10 -10 0 -15 10 -15 30 0 20 -5 30 -15 30 -12 0 -15
-13 -15 -55z"/>
<path d="M5380 7160 c0 -27 5 -50 10 -50 6 0 10 23 10 50 0 28 -4 50 -10 50
-5 0 -10 -22 -10 -50z"/>
<path d="M5290 7183 c0 -9 -9 -27 -21 -39 -24 -25 -11 -40 17 -20 15 12 22 12
40 -1 14 -9 24 -10 28 -4 4 5 -3 15 -14 21 -12 6 -20 21 -20 35 0 16 -6 25
-15 25 -8 0 -15 -8 -15 -17z"/>
<path d="M5060 7146 c-20 -25 5 -48 49 -44 31 3 36 7 36 28 0 21 -5 25 -36 28
-23 2 -40 -2 -49 -12z m60 -16 c0 -5 -9 -10 -20 -10 -11 0 -20 5 -20 10 0 6 9
10 20 10 11 0 20 -4 20 -10z"/>
<path d="M5270 7090 c0 -5 25 -10 55 -10 52 0 55 -1 55 -25 0 -14 5 -25 10
-25 6 0 10 16 10 35 l0 35 -65 0 c-37 0 -65 -4 -65 -10z"/>
<path d="M5070 7080 c0 -5 23 -10 50 -10 43 0 50 -3 50 -20 0 -11 7 -20 15
-20 10 0 15 10 15 30 l0 30 -65 0 c-37 0 -65 -4 -65 -10z"/>
<path d="M3437 7063 c-4 -3 -7 -12 -7 -20 0 -7 -34 -76 -75 -152 l-75 -139 2
-398 3 -399 320 -3 c238 -2 326 1 343 10 14 7 90 124 194 298 93 157 179 298
190 313 24 35 20 59 -12 67 -14 4 -213 102 -441 219 -229 116 -420 211 -426
211 -5 0 -13 -3 -16 -7z m837 -464 c4 -4 -71 -140 -168 -303 l-176 -296 -300
0 -300 0 0 370 0 370 72 134 73 134 395 -201 c217 -110 399 -203 404 -208z"/>
<path d="M4677 6753 c-4 -3 -7 -12 -7 -20 0 -16 -276 -551 -297 -575 -9 -10
-13 -23 -10 -30 3 -7 116 -80 253 -163 136 -82 255 -158 265 -168 16 -17 27
-18 195 -7 98 6 182 14 186 16 11 7 10 32 -2 39 -5 3 -81 1 -168 -5 l-159 -10
-154 95 c-85 52 -158 96 -162 98 -4 1 64 136 153 298 88 163 160 301 160 307
0 10 -216 132 -235 132 -7 0 -15 -3 -18 -7z m190 -144 c-1 -3 -69 -130 -151
-281 l-149 -275 -68 41 c-38 23 -68 46 -66 53 1 6 65 132 142 280 l139 270 78
-41 c43 -23 77 -44 75 -47z"/>
<path d="M2967 6114 c-4 -4 -7 -155 -7 -336 l0 -328 -25 -10 -25 -10 0 -1525
0 -1525 -50 0 -50 0 -2 1193 c-3 1184 -3 1192 -23 1192 -18 0 -20 -8 -23 -87
l-3 -88 -184 0 -185 0 0 85 c0 69 -3 87 -16 92 -8 3 -19 2 -25 -4 -5 -5 -6
-488 -2 -1232 5 -1066 8 -1224 21 -1229 8 -3 20 2 27 11 11 15 190 18 2076 37
1176 12 2068 25 2073 30 5 5 6 16 3 24 -5 12 -20 16 -59 16 -29 0 -725 -7
-1547 -15 -821 -9 -1496 -13 -1499 -11 -2 3 -1 784 3 1736 l7 1730 434 0 433
0 636 -341 c378 -202 642 -338 651 -335 9 3 14 13 12 22 -2 10 -254 151 -643
360 l-640 343 -469 -2 -469 -2 2 -227 2 -228 -85 0 -86 0 -2 288 c-3 279 -4
287 -23 287 -16 0 -21 -8 -23 -42 l-3 -43 -84 0 -84 0 -3 87 c-2 70 -6 88 -18
91 -9 1 -19 0 -23 -4z m213 -274 l0 -50 -85 0 -85 0 0 50 0 50 85 0 85 0 0
-50z m0 -150 l0 -50 -85 0 -85 0 0 50 0 50 85 0 85 0 0 -50z m0 -170 l0 -70
-85 0 -85 0 0 70 0 70 85 0 85 0 0 -70z m220 -430 l0 -310 -220 0 -220 0 0
310 0 310 220 0 220 0 0 -310z m0 -568 c0 -115 -3 -324 -7 -465 l-6 -257 -214
0 -213 0 0 465 0 465 220 0 220 0 0 -208z m-640 -242 l0 -260 -185 0 -185 0 0
260 0 260 185 0 185 0 0 -260z m0 -1105 l0 -795 -180 0 -180 0 0 795 0 795
180 0 180 0 0 -795z m630 -105 l0 -680 -215 0 -215 0 0 680 0 680 215 0 215 0
0 -680z"/>
<path d="M3158 4709 c-24 -14 -23 -46 2 -59 50 -27 119 8 94 48 -13 20 -71 27
-96 11z m77 -29 c0 -18 -43 -26 -57 -12 -16 16 2 33 30 30 16 -2 27 -9 27 -18z"/>
<path d="M3110 4610 c0 -5 18 -10 40 -10 38 0 40 -2 40 -30 0 -16 5 -30 10
-30 6 0 10 14 10 30 0 28 2 30 40 30 22 0 40 5 40 10 0 6 -37 10 -90 10 -53 0
-90 -4 -90 -10z"/>
<path d="M3150 4345 c0 -8 -9 -15 -20 -15 -11 0 -20 -4 -20 -10 0 -5 9 -10 20
-10 26 0 25 -20 0 -53 -23 -29 -9 -48 18 -24 15 13 19 13 30 1 7 -8 17 -12 23
-9 5 4 9 -3 9 -14 0 -12 7 -21 15 -21 12 0 15 16 15 85 0 69 -3 85 -15 85 -8
0 -15 -7 -15 -15 0 -8 -9 -15 -20 -15 -11 0 -20 7 -20 15 0 8 -4 15 -10 15 -5
0 -10 -7 -10 -15z m60 -44 c0 -5 -6 -12 -12 -15 -10 -5 -10 -7 0 -12 6 -3 12
-13 12 -22 0 -14 -2 -14 -14 -2 -8 8 -17 25 -21 38 -5 18 -2 22 14 22 12 0 21
-4 21 -9z"/>
<path d="M3250 4270 c0 -73 3 -90 15 -90 12 0 15 17 15 90 0 73 -3 90 -15 90
-12 0 -15 -17 -15 -90z"/>
<path d="M3140 3990 c0 -5 23 -10 51 -10 43 0 50 -3 47 -17 -3 -15 -16 -19
-66 -21 -68 -3 -87 -22 -22 -22 29 0 40 -4 40 -15 0 -10 -10 -15 -30 -15 -16
0 -30 -4 -30 -10 0 -5 25 -10 55 -10 52 0 55 -1 55 -25 0 -14 5 -25 10 -25 6
0 10 16 10 35 0 31 -3 35 -25 35 -16 0 -25 6 -25 15 0 11 11 15 40 15 22 0 40
5 40 10 0 6 -7 10 -15 10 -10 0 -15 10 -15 30 l0 30 -60 0 c-33 0 -60 -4 -60
-10z"/>
<path d="M3500 5125 c0 -60 3 -75 15 -75 10 0 15 10 15 28 0 15 4 33 9 41 14
22 31 3 31 -35 0 -24 5 -34 15 -34 11 0 15 11 15 43 0 56 -11 71 -44 63 -23
-6 -26 -3 -26 19 0 16 -6 25 -15 25 -12 0 -15 -15 -15 -75z"/>
<path d="M3730 5185 c0 -8 7 -15 15 -15 8 0 15 7 15 15 0 8 -7 15 -15 15 -8 0
-15 -7 -15 -15z"/>
<path d="M3884 5175 c-4 -8 -4 -21 -1 -29 3 -8 -1 -20 -9 -26 -47 -40 18 -91
76 -60 13 7 21 7 25 0 9 -15 45 -12 45 4 0 7 -9 16 -20 19 -18 5 -19 7 -5 33
14 27 12 44 -5 44 -4 0 -11 -12 -14 -26 -6 -21 -10 -24 -21 -14 -11 9 -12 16
-2 31 10 16 9 21 -3 29 -23 15 -60 12 -66 -5z m46 -13 c0 -13 -12 -22 -22 -16
-10 6 -1 24 13 24 5 0 9 -4 9 -8z m1 -53 c23 -12 16 -29 -11 -29 -21 0 -34 15
-25 30 8 13 12 12 36 -1z"/>
<path d="M3637 5153 c-16 -15 -6 -30 18 -25 14 2 25 0 25 -6 0 -6 -12 -12 -27
-14 -22 -2 -28 -8 -28 -28 0 -22 4 -25 43 -27 l42 -2 0 43 c0 23 -5 47 -12 54
-13 13 -50 16 -61 5z m38 -73 c-3 -5 -10 -10 -16 -10 -5 0 -9 5 -9 10 0 6 7
10 16 10 8 0 12 -4 9 -10z"/>
<path d="M3730 5105 c0 -42 3 -55 15 -55 12 0 15 13 15 55 0 42 -3 55 -15 55
-12 0 -15 -13 -15 -55z"/>
<path d="M3780 5104 c0 -66 24 -76 34 -14 4 26 11 40 21 40 8 0 15 6 15 14 0
9 -12 14 -35 14 l-35 0 0 -54z"/>
<path d="M4030 5116 c0 -52 12 -64 63 -64 l37 0 0 54 c0 40 -4 54 -14 54 -10
0 -16 -13 -18 -37 -2 -26 -8 -38 -18 -38 -10 0 -16 12 -18 38 -5 56 -32 50
-32 -7z"/>
<path d="M2532 4728 c-11 -29 -23 -61 -27 -70 -5 -13 -2 -18 9 -18 9 0 19 7
22 15 4 8 18 15 34 15 16 0 30 -7 34 -15 5 -13 36 -22 36 -10 0 3 -12 34 -26
70 -33 83 -53 86 -82 13z m51 -8 c4 -15 0 -20 -13 -20 -13 0 -17 5 -13 20 3
11 9 20 13 20 4 0 10 -9 13 -20z"/>
<path d="M4325 2239 c-1056 -16 -1926 -31 -1933 -34 -9 -3 -12 -88 -12 -379
l0 -375 32 -24 c18 -13 198 -124 399 -246 426 -257 405 -250 465 -147 20 33
37 62 39 64 1 2 18 -6 37 -18 30 -17 36 -27 42 -67 3 -25 6 -63 6 -83 0 -36 3
-40 93 -99 l93 -61 1315 2 c1306 3 1314 3 1314 23 0 20 -8 20 -1308 23 l-1308
2 -74 50 -73 49 -7 78 c-4 43 -12 84 -17 90 -13 16 -112 73 -126 73 -6 0 -30
-34 -53 -75 -24 -41 -46 -75 -50 -75 -5 0 -178 103 -386 229 l-378 229 -3 346
c-2 265 1 346 10 346 368 0 4155 63 4162 70 5 5 6 16 3 24 -8 20 144 21 -2282
-15z"/>
</g>
</svg>
