<?xml version="1.0" standalone="no"?>
<!DOCTYPE svg PUBLIC "-//W3C//DTD SVG 20010904//EN"
 "http://www.w3.org/TR/2001/REC-SVG-20010904/DTD/svg10.dtd">
<svg version="1.0" xmlns="http://www.w3.org/2000/svg"
 width="602.000000pt" height="545.000000pt" viewBox="0 0 602.000000 545.000000"
 preserveAspectRatio="xMidYMid meet">

<g transform="translate(0.000000,545.000000) scale(0.100000,-0.100000)"
fill="#000000" stroke="none">
<path d="M4334 5053 c-17 -55 -375 -733 -387 -733 -5 0 -204 70 -443 155 -240
85 -442 155 -449 155 -8 0 -50 -64 -95 -142 -44 -79 -84 -149 -89 -156 -12
-20 -366 158 -374 189 -5 17 -11 20 -31 15 -28 -7 -102 25 -122 52 -6 8 -16
13 -22 11 -6 -2 -139 -128 -295 -279 -155 -151 -318 -308 -360 -348 -46 -43
-77 -81 -77 -92 0 -11 -205 -409 -455 -885 l-455 -865 2 -1005 3 -1006 767 1
c460 0 778 4 793 10 l25 10 0 935 0 935 449 0 448 0 629 -337 c346 -185 636
-338 644 -340 9 -2 23 4 32 14 32 36 1498 2821 1498 2846 0 23 -13 33 -112 84
-62 33 -424 224 -805 426 -380 202 -697 367 -703 367 -6 0 -13 -8 -16 -17z
m303 -185 l61 -31 -71 -144 c-40 -79 -75 -143 -79 -143 -4 0 -81 34 -170 77
l-164 76 80 152 80 151 100 -53 c56 -30 129 -68 163 -85z m568 -300 c187 -99
348 -188 357 -197 16 -15 12 -25 -64 -157 l-81 -141 -48 20 c-27 12 -49 24
-49 28 0 3 23 47 51 98 50 89 57 126 23 119 -21 -4 -188 -304 -180 -324 9 -23
35 -16 51 15 27 52 9 58 310 -99 88 -46 161 -84 163 -86 5 -3 -1292 -2454
-1299 -2454 -4 0 -289 151 -634 336 l-628 336 -449 -2 c-326 0 -454 2 -464 11
-8 6 -21 9 -29 5 -13 -5 -15 -117 -15 -956 l0 -950 -280 0 -280 0 -2 337 c-3
330 -3 338 -23 338 -19 0 -20 -8 -23 -102 l-3 -103 -194 0 -194 0 -3 108 c-3
99 -4 107 -23 107 -20 0 -20 -8 -23 -342 l-2 -343 -50 0 -50 0 0 440 0 440
492 2 493 3 -4 665 -4 665 47 93 c26 51 50 91 54 88 4 -2 151 -90 326 -196
176 -105 325 -199 332 -207 6 -9 17 -14 25 -11 19 8 351 595 347 614 -2 9
-155 93 -363 200 -198 101 -364 185 -370 188 -6 2 -6 8 2 16 11 13 49 -4 597
-270 93 -45 172 -78 177 -73 4 4 222 415 485 913 262 498 479 908 483 911 8 8
347 -152 363 -172 7 -9 30 -26 50 -38 l37 -22 -17 -29 c-13 -22 -14 -32 -5
-41 6 -6 18 -9 25 -6 20 7 141 226 134 242 -11 30 -36 13 -71 -50 -20 -36 -41
-65 -46 -65 -8 0 -23 8 -67 36 -2 1 31 70 73 153 l75 151 63 -31 c34 -18 215
-113 402 -211z m-1708 -143 c224 -80 414 -147 420 -150 9 -3 -5 -39 -44 -112
-31 -59 -57 -109 -58 -111 -2 -2 -824 357 -834 364 -7 6 84 154 95 154 7 0
196 -65 421 -145z m-1122 83 c25 -12 45 -26 45 -31 0 -7 -385 -696 -405 -725
-4 -6 -334 153 -332 160 3 11 631 618 639 618 4 0 28 -10 53 -22z m504 -248
c5 0 24 25 41 55 37 64 25 64 165 1 l95 -43 -34 -27 c-36 -27 -72 -88 -63
-103 3 -5 145 -71 316 -148 l310 -139 -57 -111 c-32 -60 -147 -279 -256 -486
l-199 -377 -171 83 c-689 331 -911 438 -914 440 -2 2 105 220 238 485 133 265
239 489 236 496 -17 44 -45 -4 -286 -486 -137 -275 -250 -505 -250 -510 0 -6
81 -50 180 -97 l180 -86 -206 -404 -206 -404 2 -385 1 -384 -636 0 -635 0 0
244 0 244 441 838 c243 462 449 855 458 875 l16 36 165 -78 c91 -42 173 -85
182 -94 9 -10 23 -15 30 -12 7 2 111 178 231 390 l219 386 199 -99 c109 -55
203 -100 208 -100z m3041 -75 c0 -5 -135 -262 -149 -284 -7 -11 -37 1 -147 59
-77 40 -144 77 -151 82 -8 6 12 50 70 152 l82 143 148 -73 c81 -41 147 -76
147 -79z m-2409 -57 l277 -122 -25 -50 c-14 -28 -26 -52 -28 -54 -2 -2 -585
257 -595 266 -5 3 80 81 90 82 2 0 129 -55 281 -122z m-736 -1198 c190 -96
345 -178 345 -181 0 -4 -283 -510 -295 -527 -1 -1 -150 86 -331 194 l-329 197
125 249 c69 136 129 247 133 245 5 -1 163 -81 352 -177z m-771 -1366 c3 -9 6
-117 6 -240 l0 -224 -477 0 c-429 0 -478 -2 -495 -17 -17 -15 -18 -43 -18
-465 l0 -448 -145 0 -145 0 0 705 0 705 634 0 c569 0 634 -2 640 -16z m-394
-1184 l0 -210 -195 0 -195 0 0 210 0 210 195 0 195 0 0 -210z"/>
<path d="M4895 4364 c-42 -80 -74 -152 -71 -160 10 -27 36 -14 58 31 l23 44
67 -42 67 -42 -20 -33 c-22 -34 -20 -62 5 -62 17 0 189 266 190 295 1 11 -6
21 -15 23 -12 2 -34 -25 -74 -87 -31 -50 -58 -91 -60 -91 -2 0 -33 18 -69 41
l-65 41 40 80 c22 44 38 86 35 94 -14 36 -39 6 -111 -132z"/>
<path d="M4177 4153 c-59 -100 -977 -1878 -974 -1886 7 -18 1218 -620 1228
-610 4 4 209 418 454 918 246 501 454 918 462 927 9 10 13 23 10 30 -3 7 -231
132 -508 278 -277 146 -517 274 -534 285 -32 22 -117 65 -128 65 -3 0 -8 -3
-10 -7z m59 -72 c5 -5 241 -132 524 -281 283 -149 518 -275 523 -279 4 -4 -34
-93 -85 -198 l-93 -191 -542 305 -542 306 31 61 c83 166 151 286 162 286 7 0
16 -4 22 -9z m295 -682 c294 -165 537 -304 542 -308 4 -4 -82 -188 -190 -408
l-198 -400 -553 301 c-334 182 -551 306 -550 314 2 10 410 800 414 802 0 0
241 -135 535 -301z m-429 -855 c298 -163 547 -299 551 -303 4 -5 -49 -125
-119 -269 l-127 -261 -571 286 c-314 157 -572 286 -574 288 -5 5 284 555 293
555 2 0 248 -133 547 -296z"/>
<path d="M4040 2951 c0 -35 3 -40 25 -43 35 -4 27 -23 -8 -21 -29 1 -32 -13
-5 -30 22 -14 66 0 73 23 8 26 -11 60 -35 60 -11 0 -20 5 -20 10 0 6 11 10 25
10 16 0 25 6 25 15 0 11 -11 15 -40 15 -40 0 -40 0 -40 -39z"/>
<path d="M4166 2974 c-18 -18 -21 -76 -6 -105 7 -12 21 -19 40 -19 19 0 33 7
40 19 14 27 13 94 -2 109 -17 17 -54 15 -72 -4z m49 -55 c0 -24 -5 -34 -15
-34 -16 0 -25 37 -16 62 10 26 31 8 31 -28z"/>
<path d="M4287 2983 c-13 -13 -7 -32 8 -27 8 4 23 3 32 0 15 -6 11 -12 -20
-41 -53 -48 -49 -65 13 -65 38 0 50 4 50 15 0 10 -10 15 -32 15 l-33 0 33 26
c33 27 40 52 20 72 -13 13 -60 16 -71 5z"/>
<path d="M3790 2311 c0 -35 3 -40 25 -43 35 -4 27 -23 -8 -21 -29 1 -32 -13
-5 -30 22 -14 66 0 73 23 8 26 -11 60 -35 60 -11 0 -20 5 -20 10 0 6 11 10 25
10 16 0 25 6 25 15 0 11 -11 15 -40 15 -40 0 -40 0 -40 -39z"/>
<path d="M3916 2334 c-18 -18 -21 -76 -6 -105 7 -12 21 -19 40 -19 19 0 33 7
40 19 14 27 13 94 -2 109 -17 17 -54 15 -72 -4z m49 -55 c0 -24 -5 -34 -15
-34 -16 0 -25 37 -16 62 10 26 31 8 31 -28z"/>
<path d="M4053 2338 c-26 -12 -32 -44 -8 -34 12 4 15 -4 15 -44 0 -38 4 -50
15 -50 12 0 15 14 15 70 0 73 -1 75 -37 58z"/>
<path d="M4870 4095 c0 -8 7 -15 15 -15 8 0 15 7 15 15 0 8 -7 15 -15 15 -8 0
-15 -7 -15 -15z"/>
<path d="M4660 4030 l0 -70 40 0 c29 0 40 4 40 15 0 9 -9 15 -25 15 -16 0 -25
6 -25 15 0 9 9 15 25 15 16 0 25 6 25 15 0 9 -9 15 -25 15 -14 0 -25 5 -25 10
0 6 11 10 25 10 16 0 25 6 25 15 0 11 -11 15 -40 15 l-40 0 0 -70z"/>
<path d="M4927 4080 c-19 -22 -22 -40 -8 -40 6 0 11 -17 13 -37 3 -33 7 -38
31 -41 19 -2 27 1 27 12 0 9 -7 16 -15 16 -9 0 -15 9 -15 25 0 16 6 25 15 25
8 0 15 7 15 15 0 8 -7 15 -15 15 -8 0 -15 7 -15 15 0 21 -12 19 -33 -5z"/>
<path d="M4768 4042 c20 -27 20 -28 0 -55 -20 -27 -20 -27 0 -27 11 0 23 7 26
16 6 16 8 16 24 0 31 -27 45 -20 26 12 -15 27 -15 31 1 55 20 31 3 38 -27 11
-16 -16 -18 -16 -24 0 -3 9 -15 16 -26 16 -19 0 -19 0 0 -28z"/>
<path d="M4870 4015 c0 -42 3 -55 15 -55 12 0 15 13 15 55 0 42 -3 55 -15 55
-12 0 -15 -13 -15 -55z"/>
<path d="M1392 928 c-11 -29 -23 -61 -27 -70 -5 -13 -2 -18 9 -18 9 0 19 7 22
15 4 8 18 15 34 15 16 0 30 -7 34 -15 5 -13 36 -22 36 -10 0 3 -12 34 -26 70
-33 83 -53 86 -82 13z m51 -8 c4 -15 0 -20 -13 -20 -13 0 -17 5 -13 20 3 11 9
20 13 20 4 0 10 -9 13 -20z"/>
</g>
</svg>
