<?xml version="1.0" ?>
<!DOCTYPE svg PUBLIC '-//W3C//DTD SVG 1.1//EN' 'http://www.w3.org/Graphics/SVG/1.1/DTD/svg11.dtd'>
<svg
  enable-background="new 0 0 48 48"
  height="48px"
  version="1.1"
  viewBox="0 0 48 48"
  width="48px"
  xml:space="preserve"
  xmlns="http://www.w3.org/2000/svg"
  xmlns:xlink="http://www.w3.org/1999/xlink"
>
  <g id="Layer_5">
    <g>
      <path
        d="M20.78,18.134H10.589c-0.704,0-1.274,0.571-1.274,1.274v8.919c0,0.704,0.57,1.273,1.274,1.273H12    l0.554,8.069v0.401c0,0.703,0.57,1.274,1.274,1.274h3.843c0.704,0,1.274-0.571,1.274-1.274V37.67l0.535-8.069h1.301    c0.705,0,1.274-0.569,1.274-1.273v-8.919C22.055,18.705,21.485,18.134,20.78,18.134z"
        fill="#241F20"
      />
      <circle cx="15.684" cy="12.481" fill="#241F20" r="3.742" />
      <polygon fill="#241F20" points="33.544,39.288 38.661,28.681 28.424,28.681   " />
      <polygon fill="#241F20" points="28.424,19.285 38.661,19.285 33.544,8.678   " />
      <path
        d="M46.086,0h-0.454H0v1.347v1.356v43.282v0.69v1.31V48h1.323h43.973h1.355H48v-2.015V2.21V1.5V0H46.086z     M45.296,4.036v0.753v38.355v0.845v1.332h-1.332h-0.409H4.75H4.011H2.679v-1.332v-0.924V4.794V4.036V2.704h1.332h0.404h39.008    h0.541h1.332V4.036z"
        fill="#241F20"
      />
    </g>
  </g>
</svg>
