<svg id="레이어_1" data-name="레이어 1" xmlns="http://www.w3.org/2000/svg" viewBox="0 0 512 512"><defs><style>.cls-1,.cls-2,.cls-3,.cls-4{fill:none;stroke:#000;stroke-miterlimit:10;}.cls-1{stroke-width:5px;}.cls-3{stroke-width:4px;}.cls-4{stroke-dasharray:3 1;}</style></defs><title>대지 1</title><path class="cls-1" d="M125.43,154.29s-10.86.35-17.3,11.54C98.43,182.67,83.46,209.5,68.57,238,40.63,291.59,10.85,348.7,5,359.91H348s18.41.27,35.53-10a84.17,84.17,0,0,0,23.87-20.75q3.79-4.95,7.46-10.53c13.49-20.64,27-45.51,40-69.68l.39-.72c27-49.74,51.65-95.92,51.65-95.92l.09-.17c-25.54,0-303.47.22-369.3.58-9,.05-14.07,1.8-14.07,1.8"/><rect class="cls-2" x="149.03" y="153.12" width="47.57" height="34.33"/><rect class="cls-2" x="196.78" y="153.12" width="45.41" height="34.33"/><rect class="cls-2" x="242.37" y="153.12" width="47.57" height="34.33"/><rect class="cls-2" x="290.13" y="153.12" width="58.38" height="34.33"/><rect class="cls-2" x="125.79" y="326.92" width="37.84" height="32.44"/><rect class="cls-2" x="164.17" y="326.92" width="45.55" height="32.44"/><rect class="cls-2" x="209.58" y="326.92" width="46.49" height="32.44"/><rect class="cls-2" x="256.07" y="326.92" width="47.3" height="32.44"/><rect class="cls-2" x="303.1" y="326.92" width="48.65" height="32.44"/><rect class="cls-2" x="132.27" y="289.08" width="44.33" height="28.11"/><rect class="cls-2" x="176.6" y="289.08" width="16.22" height="14.06"/><rect class="cls-2" x="192.28" y="289.08" width="16.22" height="14.06"/><rect class="cls-2" x="207.96" y="289.08" width="16.22" height="14.06"/><rect class="cls-2" x="223.63" y="289.08" width="16.22" height="14.06"/><rect class="cls-2" x="239.31" y="289.08" width="16.22" height="14.06"/><rect class="cls-2" x="176.6" y="303.14" width="16.22" height="14.06"/><rect class="cls-2" x="192.28" y="303.14" width="16.22" height="14.06"/><rect class="cls-2" x="207.96" y="303.14" width="16.22" height="14.06"/><rect class="cls-2" x="223.63" y="303.14" width="16.22" height="14.06"/><rect class="cls-2" x="239.31" y="303.14" width="16.22" height="14.06"/><rect class="cls-2" x="16.91" y="297.75" width="63.2" height="35.8" transform="translate(-252.97 210.29) rotate(-62)"/><rect class="cls-2" x="51.59" y="248.86" width="46.61" height="35.8" transform="translate(-195.8 207.64) rotate(-62)"/><rect class="cls-2" x="70.12" y="202.63" width="58.24" height="35.8" transform="translate(-142.07 204.63) rotate(-62)"/><rect class="cls-2" x="107.94" y="168.52" width="18.93" height="35.8" transform="translate(-102.31 202.56) rotate(-62)"/><line class="cls-2" x1="137.68" y1="186.91" x2="148.49" y2="186.91"/><path class="cls-3" d="M412.84,152.31l-38.89,73h40.51l40-73.52"/><path class="cls-2" d="M448.52,163.12l16.22,7.57-60.26,111.9H385l28.91-55.68"/><polyline class="cls-2" points="489.61 184.75 473.39 176.1 397.71 313.41"/><line class="cls-2" x1="411.76" y1="323.14" x2="397.71" y2="313.41"/><line class="cls-2" x1="387.98" y1="323.14" x2="398.79" y2="338.28"/><line class="cls-2" x1="397.71" y1="313.41" x2="387.98" y2="323.14"/><polyline class="cls-2" points="383.65 350.17 376.08 327.46 387.98 323.14"/><line class="cls-2" x1="465.82" y1="190.15" x2="482.04" y2="197.72"/><line class="cls-2" x1="457.17" y1="204.21" x2="474.47" y2="212.86"/><line class="cls-2" x1="449.6" y1="218.26" x2="465.82" y2="225.83"/><line class="cls-2" x1="443.12" y1="232.32" x2="459.33" y2="239.89"/><line class="cls-2" x1="435.55" y1="245.29" x2="451.77" y2="253.94"/><line class="cls-2" x1="427.98" y1="259.35" x2="444.2" y2="268"/><line class="cls-2" x1="420.41" y1="272.32" x2="436.63" y2="280.97"/><line class="cls-2" x1="412.84" y1="286.38" x2="431.22" y2="296.11"/><line class="cls-2" x1="405.27" y1="299.35" x2="422.57" y2="308"/><line class="cls-2" x1="410.68" y1="232.32" x2="426.9" y2="239.89"/><line class="cls-2" x1="396.62" y1="260.43" x2="411.76" y2="268"/><line class="cls-2" x1="419.33" y1="219.34" x2="434.47" y2="226.91"/><line class="cls-2" x1="425.82" y1="206.37" x2="440.95" y2="213.94"/><line class="cls-2" x1="433.39" y1="191.23" x2="449.6" y2="199.88"/><line class="cls-2" x1="440.95" y1="177.18" x2="457.17" y2="184.75"/><line class="cls-2" x1="453.93" y1="155.55" x2="495.01" y2="176.1"/><path class="cls-2" d="M363.11,308.44v9.29l36.76-28.11H363.11Z"/><line class="cls-2" x1="343.65" y1="289.62" x2="343.65" y2="317.73"/><polyline class="cls-2" points="317.7 317.73 336.08 317.73 336.08 289.62 317.7 289.62"/><line class="cls-2" x1="317.7" y1="318.27" x2="317.7" y2="309.62"/><polyline class="cls-2" points="303.64 317.73 270.13 317.73 270.13 289.62 303.64 289.62"/><line class="cls-2" x1="283.1" y1="289.62" x2="283.1" y2="317.73"/><line class="cls-2" x1="126.87" y1="326.92" x2="105.24" y2="326.92"/><polyline class="cls-2" points="86.32 359.9 105.78 323.14 82 310.17 59.29 353.41 59.29 359.9"/><line class="cls-2" x1="66.86" y1="339.36" x2="90.65" y2="351.25"/><line class="cls-2" x1="94.97" y1="317.73" x2="78.75" y2="345.84"/><polyline class="cls-2" points="149.03 243.13 149.03 197.72 143.63 197.72 87.4 303.68 110.11 315.57 149.03 243.13 126.33 230.16"/><line class="cls-2" x1="111.19" y1="259.35" x2="133.89" y2="271.24"/><line class="cls-2" x1="117.68" y1="245.29" x2="141.46" y2="258.27"/><polyline class="cls-2" points="194.44 197.72 272.29 197.72 272.29 225.83 194.44 225.83"/><line class="cls-2" x1="242.01" y1="197.72" x2="242.01" y2="225.83"/><line class="cls-2" x1="229.04" y1="197.72" x2="229.04" y2="225.83"/><line class="cls-2" x1="218.23" y1="197.72" x2="218.23" y2="226.37"/><line class="cls-2" x1="206.33" y1="197.72" x2="206.33" y2="225.83"/><polyline class="cls-2" points="182.55 225.83 170.66 225.83 170.66 197.72 182.55 197.72"/><rect class="cls-2" x="303.64" y="197.72" width="45.41" height="28.11"/><polyline class="cls-2" points="373.92 225.83 356.62 225.83 356.62 197.72 389.06 197.72"/><polyline class="cls-2" points="404.19 168.53 358.78 168.53 358.78 153.39"/><line class="cls-2" x1="363.11" y1="190.15" x2="393.38" y2="190.15"/><line class="cls-2" x1="375" y1="168.53" x2="375" y2="190.15"/><path class="cls-4" d="M138.22,281l235.7,1.08,25.95-47.57L164.71,233.4h-.54L138.22,281"/><polyline class="cls-2" points="261.48 278.81 264.72 243.13 204.17 243.13"/><polyline class="cls-2" points="302.56 243.13 276.61 243.13 273.37 278.81"/><path class="cls-2" d="M265,233.4v3.24H204.17"/><polyline class="cls-2" points="277.69 233.4 277.69 236.64 300.4 236.64"/></svg>